<svg xmlns="http://www.w3.org/2000/svg" viewBox="0 0 1000 675"><g fill="none" stroke-width="2"><path stroke="#fff0ea" d="M633.69 675c6.88-.76 14.95-2.98 19.91-8.16 10.72-11.18 19.29-26.97 29.87-39.83 9.39-11.44 13.68-20.4 19.2-34.41 4.66-11.82 11.64-24.58 14.33-36.84q2.54-11.59 7.03-47.54.23-1.85.2-3.72" vector-effect="non-scaling-stroke"/><path stroke="#fee3e2" d="M724.23 504.5q.12-4.1-.04-5.44c-2.42-20.3-3.25-40.52-12.29-59.23" vector-effect="non-scaling-stroke"/><path stroke="#efd9d6" d="m711.9 439.83-1.6-3.52" vector-effect="non-scaling-stroke"/><path stroke="#f7f6f6" d="M710.3 436.31c3.41-3.27 9.6-7.63 11.4-11.78q2.85-6.59 5.63-13.21c.66-1.57 4.04-2.34 5.29-3.83q1.92-2.29 2.14-5.23.68-8.85 1.59-17.64.05-.48-.16-.93-1.49-3.31-1.18-6.92.04-.45-.1-.88l-.62-1.88q-.18-.55.17-1.02c3.3-4.31-5.57-13.52-8.82-16.5-3.42-3.14-5.1-5.54-6.83-10.09q-1.28-3.37-4.33-3.82" vector-effect="non-scaling-stroke"/><path stroke="#f89699" d="M714.48 342.58c9.5-16.77 12.89-31.06 17.84-51.77 6.7-27.99.67-56.08-9.6-82.34-9.46-24.21-25.94-41.2-45.94-57.33" vector-effect="non-scaling-stroke"/><path stroke="#f983b1" d="M676.78 151.14c-8.29-6.22-17.76-10.64-26.13-14.98-10.4-5.39-19.47-7.79-29.59-11.05q-10.54-3.39-16.35-4.39c-41.7-7.22-81.9 13.71-104.76 48.55" vector-effect="non-scaling-stroke"/><path stroke="#f8ac80" d="M499.95 169.27q-10.16 1.45-19.94 4.72" vector-effect="non-scaling-stroke"/><path stroke="#ffac8e" d="M480.01 173.99c-1.57.81-2.63 1.42-4.49 1.39-88.52-1.71-121.93 87.47-109.64 161.25" vector-effect="non-scaling-stroke"/><path stroke="#f7f6f6" d="m365.88 336.63-8.69-.32a.62.61-2.2 0 1-.59-.54q-.27-2.12-1.39-3.7" vector-effect="non-scaling-stroke"/><path stroke="#d59f80" d="M355.21 332.07q.12-.31-.03-1.1" vector-effect="non-scaling-stroke"/><path stroke="#ffac8e" d="M355.18 330.97q.09-.2.09-.37-.01-.32-.33-.38l-19.77-3.67q-.6-.11-.63.49c-.13 2.48 1.14 15.42-3.97 14.89-4-.42-4.71-5.78-4.96-9.05q-.78-9.85-1.02-19.74-.01-.59.57-.49l28.88 5.19a.62.62 0 0 0 .73-.63q-.2-12.72-1.21-24.71c-1.65-19.85-9.3-33.16-31.06-34.46-16.16-.96-19.47 12.41-19.55 25.21q-.11 16.05.76 32.07c.94 17.54 3.74 36.99 23.25 42.11" vector-effect="non-scaling-stroke"/><path stroke="#f7f6f6" d="M326.96 357.43q-.18.62.01.95.21.35.53.08.44-.37.95.02.27.21 0 .43-5.27 4.23-7.51 4.52-4.19.54-7.91 2.57a1.9 1.82-57.6 0 1-.93.23c-3.99-.09-7.63 1.32-11.38 1.51q-5.14.26-10.1 1.5c-6.63 1.66-12.24 2.79-18.57 3.26-4.28.32-10.17 2.68-10.56 7.78-.27 3.46.19 4.95-3.47 5.52q-3.34.53-6.1 3.34a.43.42-75.2 0 1-.22.13l-5.91 1.65q-.51.15-.99-.09-2.18-1.09-3.81-3.01-.33-.39-.4-.89c-.61-4.01-4.98-3.37-7.71-2.11-2.9 1.34-5.69 4.41-8.3 6.54q-.57.47-.33 1.17l.98 2.96q.18.53.71.73c5.3 2.01 9.29 5.64 13.99 7.88q11.25 5.36 22.26 11.21 4.85 2.57 9.14 3.81c7.15 2.05 12.62 5.73 19.44 8.01 4.89 1.64 9.85 5.17 14.4 7.68q1.32.72.94 2.9a.53.53 0 0 1-.63.43q-3.76-.8-7.25.56a2.17 2.08-49.8 0 1-1.14.12q-5.97-1-10.97 1.89c-8 4.62-16.92 5.4-25.88 3.78-5.56-1-11.71-1.47-14.64 4.1a1.59 1.53 57.3 0 0-.17.86c.74 8.45 3.4 11.86 8.69 18q.29.35.72.5 2.26.78 3.54 2.7.25.38.67.54 6.4 2.49 12.19 6.08c5.47 3.39 8.98 5.47 13.44 8.25 2.54 1.59 5.79 2.06 8.32 4.67a1.46 1.45-17 0 0 .8.42q4.69.87 6.01 1.59c15.06 8.18 29.01 17.34 46.1 22.2q3.82 1.08 7.82 2.97 8.71 4.09 18.15 6.17a1.46 1.45-14.8 0 1 .76.44q.64.69 1.49.4.52-.18 1.06-.08 4.99.91 5.7 7.53" vector-effect="non-scaling-stroke"/><path stroke="#ffebe3" d="M380.89 531.83c-3.8 8.09-5.41 18.51-6.86 27.31-1.33 8.05-.99 17.76-.2 26.15.5 5.45.15 11.11 1.04 16.23q1.75 10.08 4.2 19.58a.47.47 0 0 0 .93-.16c-1.88-24.02-1.14-48.74-.39-73.26q.01-.63.64-.68 1.34-.12 2 .97.27.44.74.64c6.22 2.72 10.08 2.28 15.85 2.92q.45.05.49.5l5.46 68.14q.02.18.19.24.16.06.33.11.07.02.07-.05l2.05-65.7q.02-.59.59-.46 8.02 1.77 11.99 3.64 3.82 1.8 7.64 1.06a.94.94 0 0 1 1.12.84c.34 4.32.09 8.6.71 12.81q2.41 16.58 2.31 33.35c-.01 1.35.56 2.74.56 3.93q.01 9.16.44 18.32.01.23.23.22.16-.01.27-.12.13-.11.16-.4c1.43-12.82.51-25.72 1.29-38.61.19-3.16-.24-6.93.12-10.17q1.03-9.41 1.23-16.28.02-.47.48-.57c3.62-.79 14.41 3.36 18.07 4.98a.89.89 0 0 0 1.11-.33q2.07-3.17 5.24-5.39.38-.27.84-.33 6.23-.82 12.28.65c8.46 2.04 13.98 9.27 17.16 16.7a.74.74 0 0 0 1.34.05c1.09-2.13.85-5.9 1.98-7.42q1.02-1.37 2.94-.76 10.96 3.46 22.14 6.28a.91.89-.5 0 1 .64.62l2.6 8.6a3.11 3.09-89.5 0 0 2 2.05q6.01 1.96 12.31 4.45c4.44 1.75 5.99 4.18 7.7 8.34q3.73 9.05 6.88 17.73a1.16 1.16 0 0 0 2.09.2l10.8-18.15q.21-.36.57-.14 3.6 2.12 8.99 3.28 6.56 1.4 18.14 5.98" vector-effect="non-scaling-stroke"/><path stroke="#fff0ea" d="m592.39 609.72 2.03.89a.56.55 24.5 0 1 .28.73q-2.87 6.24-5.74 10.62-10.12 15.42-17.44 29.82-.23.47-.08.96 3.24 10.29 8.55 19.71c2.02 3.57 10.72 2.22 14.46 2.55M461.18 675l6.88-1.1q.74-.12.06-.44c-6.49-3.05-8.14-8.23-10.37-14.95q-.73-2.21-3.05-3.96a1.41 1.41 0 0 0-.9-.28q-3.26.1-6.07-1.59a1.6 1.58-31.2 0 0-.91-.22c-2.77.2-4.65.28-7.14-1.04q-6.06-3.22-8.85-9.14a1.44 1.44 0 0 0-2.23-.48c-4.16 3.53-6.77 6.4-12.68 3.58q-1.49-.71-3.37-2.92-4.25-4.99-9.82-8.52-.43-.27-.93-.21c-5.21.59-11.16-1.46-15.99-3.29-1.49-.56-2.43-1.62-3.82-2.49q-.55-.34-.46.3c1.82 14.25 9.68 28.52 16.94 41.27q1.44 2.54 3.18 4.35a1.37 1.32 69.8 0 0 .87.42l7.92.71" vector-effect="non-scaling-stroke"/><path stroke="#ffac8e" d="M242.7 214.22a.36.36 0 0 0-.32-.34l-18.95-2.45a.36.36 0 0 0-.4.38l1.39 21.09a.36.36 0 0 0 .31.33l18.78 2.74a.36.36 0 0 0 .41-.38l-1.22-21.37" vector-effect="non-scaling-stroke"/><path stroke="#d59f80" d="M196.66 262.95q-.09-4.29 1.38-8.26" vector-effect="non-scaling-stroke"/><path stroke="#ffac8e" d="M198.04 254.69q2.86.46 3.72 1.56c2.61 3.33 2.96 11.03 2.97 14.99a1.18 1.17 4.6 0 0 .99 1.16l16.7 2.78q.51.08.53-.43c.62-12.24-3.16-28.34-15.51-33.17-16.36-6.39-28.3-2.2-28.43 17.17q-.16 23.38 3.21 46.5c1.69 11.66 6.4 22.46 18.73 26.02 24.7 7.14 26.49-11.03 23.87-28.94q-.07-.47-.53-.56l-17.56-3.29a.43.42 4.4 0 0-.51.43c.15 4.82 1.23 12.71-.35 17.15q-.18.49-.69.59c-4.72.96-4.96-5.19-5.2-8.22q-1.79-22.98-3.32-45.48" vector-effect="non-scaling-stroke"/><path stroke="#d44b0f" d="M198.04 254.69q-3.83 2.17-1.38 8.26" vector-effect="non-scaling-stroke"/><path stroke="#ffac8e" d="M248.96 339.46a.63.63 0 0 0 .75-.65l-5.08-90.13a.63.63 0 0 0-.54-.58l-18.26-2.68a.63.63 0 0 0-.72.66l5.35 89.1a.63.63 0 0 0 .5.58l18 3.7" vector-effect="non-scaling-stroke"/><path stroke="#d59f80" d="M270.72 277.76q-.33-4.27 1.31-8.11" vector-effect="non-scaling-stroke"/><path stroke="#ffac8e" d="M272.03 269.65c6.21.49 5.53 11.5 5.71 15.37q1.44 30.15 3.02 60.42.03.56.58.67l19.5 3.9a.34.34 0 0 0 .41-.35q-1.42-31.69-2.92-63.36c-.57-11.97.34-32.7-16.11-34.47-6.14-.66-9.01 3.45-12.01 7.85a.33.33 0 0 1-.6-.16l-.59-6.72a1.14 1.13 1.9 0 0-.97-1.03l-17.24-2.58q-1.48-.22-1.39 1.27l4.89 89.34q.04.77.8.92l18.09 3.64a.71.71 0 0 0 .85-.73l-3.33-65.87" vector-effect="non-scaling-stroke"/><path stroke="#d44b0f" d="M272.03 269.65q-3.12 1.47-1.89 7.26a.03.03 0 0 0 .06 0l.11-.35a.07.07 0 0 1 .13.03q-.03.86.28 1.17" vector-effect="non-scaling-stroke"/><path stroke="#ffebe3" d="M214.05 500.63a1.09 1.09 0 0 1 2.02-.3q2.51 4.52 3.22 8.66c.55 3.19.83 11.3 3.37 13.36 3.43 2.78 10.49 5.4 15.23 4.17a.66.65 82.2 0 0 .49-.65c-.38-10.71-1.28-23.55-9.58-31.45-2.19-2.09-5.55-3.54-8.25-5.38q-.05-.04-.05-.1v-.36q0-.08-.07-.12-8.59-4.79-16.51-1.81c-7.06 2.67-7.56 11.22-7.57 17.6q-.05 21.02 3.4 41.76c1.34 8.05 6.01 17.32 13.04 22.04q6.86 4.59 14.42 5.05c12.69.77 12.79-11.68 11.64-19.9-.8-5.78-4.93-8.37-10.8-8.49q-4.02-.08-4.8 2.99c-1.11 4.34-2.36 7.91-2.29 12.51q.01.87-.8.56l-.72-.28q-.58-.22-.44-.83.22-.95-.55-.97-.59-.02-.74-.59c-4.08-15.73-4.72-32.1-4.73-48.6 0-3.03.5-6.06 1.07-8.87M255.03 581.76c6.55 6.39 6.91-5.84 6.75-8.51-1.19-20.52-1.26-40.76-2.96-66.58-.33-4.91-2-5.07-6.4-7.06q-4.72-2.13-9.86-3.21a.57.57 0 0 0-.66.38q-1.57 4.84-1.42 8.47.31 7.61 2.03 24.25c1.19 11.61.63 28.92 3.82 43.68 1.08 5 3.03 7.58 8.09 8.28a1.13 1.09 70.2 0 1 .61.3M288.24 590.07c3.15 3.19 7.11 6.7 11.41 8.12 10.68 3.53 11.68-12.48 11.41-18.68-.9-20.66-1.02-41.5-2.68-62.11q-.05-.61-.62-.82l-12.44-4.61q-.46-.17-.95-.09-1.68.29-3.2-.59a.75.74-69.9 0 0-1.1.52q-.68 3.92-.42 7.43 1.68 23.16 2.55 46.37c.19 5.19-.37 9.65-1.44 14.48a1.03 1.03 0 0 1-1.94.2q-.43-.94-1.15-1.9c-1.52-2.01-2.7-8.41-2.82-10.94q-1.2-25.07-2.19-50.14c-.08-2.07.06-7.83-2.93-9.27q-5.18-2.48-13.05-3.67-.49-.07-.9-.34l-1.08-.72a.44.44 0 0 0-.68.36c-.41 22.55 3.3 45.13 3.76 67.32.11 5.58 1.18 13.79 6.2 17.11q6.03 3.98 13.37 1.75.51-.16.89.22" vector-effect="non-scaling-stroke"/><path stroke="#fff0ea" d="M337.41 538.68c5.46 2.65 4.75 16.97 9.74 18q7.4 1.54 13.48 5.97.41.3.52-.19c2.8-11.73-.2-21.29-7.66-30.44-6.36-7.81-27.18-16.42-34.75-6.47q-2.12 2.78-3.03 8.88c-2.1 14-.59 26.34.34 39.56 1.2 17.17 6.63 34.07 25.47 38.62 7.87 1.9 15.46 3.03 18.74-6.35 3.17-9.09 2.76-18.55 2.39-28.95q-.07-2.09-.92-3.93a.63.62 85.6 0 0-.4-.35l-24.5-7.39a2.16 2.15-89.5 0 1-1.45-1.48c-2.22-8.06-2.97-17.6 1.26-25.24q.27-.49.77-.24M487.58 620.49a1.84 1.84 0 0 0 2.4-.05q1.45-1.29 1.59-4.12c.45-9.03 1.56-20.26-3.39-28.42-1.04-1.71-2.88-2.08-4.16-.55-3.96 4.75-2.91 19.13-1.77 24.85q.92 4.64 5.33 8.29M249.31 590.97c-3.66 8.67.39 19.22 10.61 20.32q.53.06.75-.44c3.04-6.96 1.25-11.27-2.15-18.62q-.79-1.72-2.51-.58-.4.26-.77-.03-2.06-1.56-4.63-1.52a1.43 1.42 11 0 0-1.3.87M521.96 611.72l1.71 45.97q.01.24.12.44l.29.47a.42.42 0 0 0 .74-.01c2.25-4.18 10.15-15.77 9.22-19.84q-1.29-5.56-7.65-20.7-1.53-3.65-3.69-6.59a.41.41 0 0 0-.74.26M461.11 629.3c-4.19 9.84 11.2 12.22 17.08 13.83a2.07 2.05 86.7 0 1 1.38 1.24l6.09 15.85q.37.96 1.37 1.2 3.02.7 3.65-1.87c4.49-18.43-9.08-17.72-19.54-25.78q-3.45-2.65-6.93-5.29a2.03 2.03 0 0 0-3.1.82" vector-effect="non-scaling-stroke"/><path stroke="#f21a4b" d="m676.78 151.14-2.16 1.31q-.44.26-.84-.04-6.8-5.13-14.79-8.06-.38-.14-.38-.54v-.9q0-.46-.37-.73-3.46-2.48-7.49-3.76a.78.75 89.7 0 1-.49-.5q-.33-1.03-1.52-.92a2 1.94 53.3 0 1-.93-.15c-3.49-1.5-7.11-2.05-10.69-3.35-9.35-3.4-21.25-3.41-30.83-3.39q-9.85.01-19.07 1.81-33.27 6.51-58.38 30.07" vector-effect="non-scaling-stroke"/><path stroke="#f93040" d="m528.84 161.99-12.55 4.72" vector-effect="non-scaling-stroke"/><path stroke="#f23032" d="m516.29 166.71-16.34 2.56" vector-effect="non-scaling-stroke"/><path stroke="#f08c90" d="M714.48 342.58q-4.17 6.94-8.9 13.25c-8.05 10.74-15.02 21.53-24.47 31.28" vector-effect="non-scaling-stroke"/><path stroke="#d05557" d="m681.11 387.11-14.73 12.52" vector-effect="non-scaling-stroke"/><path stroke="#dc331d" d="M666.38 399.63q-.62-1.55 2.72-4.05" vector-effect="non-scaling-stroke"/><path stroke="#f75d32" d="M669.1 395.58q8.68-11.75 15.03-25.58" vector-effect="non-scaling-stroke"/><path stroke="#f22f21" d="M684.13 370q1.39 1.49 3.06-.31 9.26-10.02 19.48-24.77" vector-effect="non-scaling-stroke"/><path stroke="#f84228" d="m706.67 344.92.59 1.23a1.19 1.18-47 0 0 2.17-.08q6.27-15.83 8.53-32.79" vector-effect="non-scaling-stroke"/><path stroke="#f22f21" d="M717.96 313.28q1.6-.53 2.24-2.3 8.34-23.07 9.11-47.78" vector-effect="non-scaling-stroke"/><path stroke="#f84228" d="M729.31 263.2q1.35.17 1.19-.69-.62-3.27-1.75-11.26-1.46-10.31-6.96-19.88" vector-effect="non-scaling-stroke"/><path stroke="#f22f21" d="M721.79 231.37c-24.58-54.84-72.4-86.45-133.52-83.49-7.55.37-14.63 1.67-21.76 3.64q-.24.07-.41-.06-.34-.26.07-.41c16.66-6.08 37.71-5.94 54.94-2.62 45.06 8.71 82.91 38.16 100.42 80.51q.68 1.65 1.9.81a.97.96-27.6 0 0 .36-1.13c-2.41-6.61-4.07-13.83-6.49-19.69-9.44-22.85-22.36-37.11-43.69-49.81q-32.19-19.15-70.54-17.88c-9.31.3-18.27 2.06-27.23 4.43a.66.66 0 0 1-.6-1.13l.23-.2q.08-.08-.03-.06c-11.99 1.53-23.61 9.4-34.16 15.96" vector-effect="non-scaling-stroke"/><path stroke="#f75d32" d="m541.28 160.24-5.27 1.16" vector-effect="non-scaling-stroke"/><path stroke="#f84228" d="M536.01 161.4q-4.17 1.21-7.17.59" vector-effect="non-scaling-stroke"/><path stroke="#f94516" d="M721.79 231.37q6.23 15.75 7.52 31.83M717.96 313.28c9.11-77.25-44.76-149.23-122.89-159.01-5.78-.72-12.27-.56-18.4-.69-8.13-.17-15.94 1.27-24.03 2.12q-.24.02-.16.25.04.12.09.26.05.17.22.16c6.59-.43 13.87-1.77 19.61-2.06 55.2-2.81 106.42 29.35 130.92 78.43 15.17 30.41 19.37 66.86 9.67 99.01q-1.69 5.59-6.32 13.17" vector-effect="non-scaling-stroke"/><path stroke="#f86020" d="M684.13 370c38.96-89.27-21.7-198.49-119.56-209.03-6.94-.74-15.4-.33-23.29-.73" vector-effect="non-scaling-stroke"/><path stroke="#e2641b" d="M669.1 395.58q-1.77.29-2.28-.67-.24-.44.12-.79c13.07-12.51 20.96-33.98 24.65-51.43" vector-effect="non-scaling-stroke"/><path stroke="#f86020" d="M691.59 342.69c5.78-27.25 3.81-53.99-5.4-80.81" vector-effect="non-scaling-stroke"/><path stroke="#fe7326" d="M686.19 261.88q-.98-3.8-2.62-7.66c-23.03-54.21-75.3-95.28-136.06-92.88q-5.64.22-11.5.06" vector-effect="non-scaling-stroke"/><path stroke="#f94516" d="M686.19 261.88q-.92 3.46-4.36 1.17-.46-.3-.38.24l.06.43q.08.59-.42.26c-1.7-1.16-2.96-2.07-4.2-3.91q-1.12-1.68-2.09-2.38-11.75-8.4-22.12-18.41c-1.25-1.21-1.28-2.57-3.08-3.65-5.08-3.05-9.15-7.22-14.46-10.22q-.74-.41.11-.41h.47a.14.14 0 0 0 .08-.26l-3.64-2.65q-.24-.18-.16.11.05.14.06.28.08.57-.44.31c-3-1.47-6.1-4.41-8.83-4.82a1.03 1.02-61.9 0 0-.84.26q-.86.78-.81 2.13" vector-effect="non-scaling-stroke"/><path stroke="#fe7326" d="M621.14 220.36c-24.94-29.92-60.32-50.87-99.65-52.3" vector-effect="non-scaling-stroke"/><path stroke="#f8580f" d="m521.49 168.06-5.2-1.35" vector-effect="non-scaling-stroke"/><path stroke="#f77319" d="M521.49 168.06q25.24 2.49 45.94 12.26c54.18 25.59 87.85 81.89 92.05 140.9" vector-effect="non-scaling-stroke"/><path stroke="#dc4904" d="M659.48 321.22c-2.6 1.96-4.97.11-6.4-2.36q-5.46-9.41-12.77-17.44c-5.3-5.82-9.07-12.34-14.74-18.07q-7.96-8.03-15.27-17.9-1.48-2-4.16-3.84-.08-.06-.08-.05-.04.13-.08.27-.04.15-.15.04c-4.68-4.06-8.27-8.36-12.52-12.79-1.95-2.02-4.55-3.47-5.78-5.1-1.34-1.76-2.12-3.59-3.63-5.46q-1.31-1.62-1.95-3.69a1.28 1.26-84.4 0 0-.61-.76q-1.43-.81-3.04-1.1-.43-.07-.76-.35-1.44-1.17-3.14.67" vector-effect="non-scaling-stroke"/><path stroke="#f77319" d="M574.4 233.29c-22.86-30.31-54.8-52.86-93.16-57.93q-.86-.12-1.49.14" vector-effect="non-scaling-stroke"/><path stroke="#f8580f" d="M479.75 175.5q-.04-.68.26-1.51" vector-effect="non-scaling-stroke"/><path stroke="#f86020" d="M621.14 220.36q21.1 25.31 31.5 56.73" vector-effect="non-scaling-stroke"/><path stroke="#e2641b" d="M652.64 277.09c15.98 47.63 11.14 100.79-19.71 141.57q-1.04 1.37-1.43.13" vector-effect="non-scaling-stroke"/><path stroke="#d46619" d="M631.5 418.79q10.96-13.99 17.75-30.55" vector-effect="non-scaling-stroke"/><path stroke="#e2641b" d="M649.25 388.24q12.44-32.22 10.23-67.02" vector-effect="non-scaling-stroke"/><path stroke="#fe7326" d="M479.75 175.5q-.29.11-.41.25-.31.41.2.48c64.75 8.46 107.64 64.33 124.87 123.06 6.99 23.84 9.21 50.87 6.16 77.03q-.53 4.56-2.46 10.34-.16.5.28.78.67.41 1.68.02" vector-effect="non-scaling-stroke"/><path stroke="#d44b0f" d="M610.07 387.46c-5.27 27.48-20.52 52.89-41.13 71.55" vector-effect="non-scaling-stroke"/><path stroke="#c76340" d="M568.94 459.01c-26.59 20.25-56.33 28.71-89.45 19.8-7.94-2.14-14.33-3.94-20.82-7.51" vector-effect="non-scaling-stroke"/><path stroke="#dd886b" d="M458.67 471.3c-28.94-15.58-50.91-36.43-68.04-65.64" vector-effect="non-scaling-stroke"/><path stroke="#f6a284" d="M390.63 405.66q-18.57-32.01-24.75-69.03" vector-effect="non-scaling-stroke"/><path stroke="#d44b0f" d="M404.1 367.63q-1.63 2.24 2.29 2.8c5.96.85 11.93 2.15 17.65 3.45a1.15 1.15 0 0 0 1.4-1.14q-.02-.55-.53-1.01" vector-effect="non-scaling-stroke"/><path stroke="#ffac8e" d="M424.91 371.73q-.81-36.89-1.47-73.73-.03-1.9 1.34-3.18.36-.34.86-.35c5.56-.19 5.7 7.92 5.76 11.79q.53 33.16 1.01 66.4 0 .57.55.73l4.16 1.26" vector-effect="non-scaling-stroke"/><path stroke="#d44b0f" d="M437.12 374.65q4.98 3.98 12.85 3.61.59-.03.92.47c2.18 3.36 3.84 8.28 6.86 10.73q5.24 4.25 11.85 5.62c9.53 1.97 12.77-.49 19.72-7.22a.54.54 0 0 1 .87.16l1.18 2.58q.21.46.06.95-.72 2.32.16 4.62a1.36 1.33 2.7 0 0 .66.71c3.61 1.74 7.34 1.56 11.1 2.61 4.36 1.22 8.29 1.64 12.97 3.18q1.9.63 4.49-1.55" vector-effect="non-scaling-stroke"/><path stroke="#ffac8e" d="M520.81 401.12q1.47-1.08.62-5.9" vector-effect="non-scaling-stroke"/><path stroke="#d44b0f" d="m521.43 395.22 1.92-.95q.41-.2.85-.09 8.15 2.08 13.3 2.61c2.61.27 4.41 1.83 6.12-1.15q5.06-8.8 10.12-18.44a.69.69 0 0 1 1.25.05l2.92 6.92q.24.58.75.21l.61-.46" vector-effect="non-scaling-stroke"/><path stroke="#ffac8e" d="m559.27 383.92 6.87 15.58q.62 1.41 2.13 1.72l29.97 6.08a.49.49 0 0 0 .55-.68l-25.62-57.82" vector-effect="non-scaling-stroke"/><path stroke="#d44b0f" d="M573.17 348.8q15.45-26.77 25.84-47.54.29-.58-.25-.81" vector-effect="non-scaling-stroke"/><path stroke="#ffac8e" d="M598.76 300.45q-.22-.48-.93-.59-15.44-2.34-31-4.62-.61-.09-.89.45l-10.2 20.04a.37.37 0 0 1-.67-.03l-9.79-22.9a1.66 1.65 82.9 0 0-1.27-.99l-23.31-3.49a1.2 1.2 0 0 1-.96-.85c-4.58-15.66-16.15-20.79-31.33-23.31-17.15-2.86-33.65-3.36-36.36 18.54a.41.41 0 0 1-.8.08c-1.74-5.12-5.92-7.24-11.07-8.32-8.75-1.83-12.66 2.39-17.71 8.69q-.41.51-.55-.13-2.16-9.83-10.96-12.64c-8.13-2.59-12.96.43-17.82 6.64q-.37.48-.66-.05-.48-.86-.09-1.72.21-.47.16-.98l-.35-3.52q-.14-1.33-1.46-1.52l-19.71-2.86a.85.85 0 0 0-.98.87l2.85 93.22a1.09 1.09 0 0 0 .87 1.03l20.42 4.1q.58.12.56-.47-1.07-35.43-1.81-70.87-.06-2.94 1.22-4.42a1.17 1.14 22 0 1 .98-.4c5.13.46 5.2 6.65 5.33 10.82q1.03 33.26 1.66 66.54.01.59.59.66l1.38.18" vector-effect="non-scaling-stroke"/><path stroke="#d59f80" d="M598.76 300.45q-1.02.72-1.58 1.73-12.35 22.53-24.55 45.14-.28.53.54 1.48M559.27 383.92l-4.43-10.83a.58.58 0 0 0-1.05-.05l-11.52 22.05a1.03 1.02 19.1 0 1-1.11.53l-19.36-3.92q-.54-.11-.51.44l.14 3.08M520.81 401.12l-27.71-5.77q-.5-.1-.54-.61l-1.14-12.5a.35.34-30.6 0 0-.63-.16c-1.73 2.55-3.58 5.5-5.55 7.36-10.37 9.77-26.22 2.21-31.7-9.07-.69-1.42-.72-2.69-2.53-3.14q-5.73-1.43-13.89-2.58M424.91 371.73l-20.81-4.1" vector-effect="non-scaling-stroke"/><path stroke="#e2641b" d="M574.4 233.29q10.7 13.89 18.46 29.41" vector-effect="non-scaling-stroke"/><path stroke="#d46619" d="M592.86 262.7c19.21 38.7 25.84 82.48 17.21 124.76" vector-effect="non-scaling-stroke"/><path stroke="#dd360b" d="M691.59 342.69c-3.34-3.61-2.39-6.93-3.53-10.7q-2.02-6.68-5.15-12.9-.2-.39-.47-.43-.39-.06-.54-.43c-3.48-8.78-8.42-16.2-13.93-24.65-2.5-3.85-10.76-16.11-15.33-16.49" vector-effect="non-scaling-stroke"/><path stroke="#b83c04" d="M649.25 388.24q-.55-.1-.98.59-.21.35-.3-.05c-.64-2.85-1.61-5.09-1.26-8.1.95-8.32 1.5-17.99-1.04-26.07-1.42-4.5-1.47-9.31-2.89-13.37q-3.59-10.26-8.78-19.85-.07-.12-.18-.13-.06-.01-.13-.01-.24 0-.34-.19-7.97-15.22-13.83-22.35-5.52-6.72-6.53-9.43-1.08-2.9-2.3-4.43l-1.57-1.98q-6.41-10.03-11.32-20.82-.2-.43-.66-.33l-4.28.98" vector-effect="non-scaling-stroke"/><path stroke="#d44b0f" d="M355.18 330.97q-.13.48-.45.89-.27.33-.24.76c.54 10.09-1.04 22.81-12.81 26.13" vector-effect="non-scaling-stroke"/><path stroke="#f6a284" d="M341.68 358.75q-6.96 1.28-14.72-1.32" vector-effect="non-scaling-stroke"/><path stroke="#d44b0f" d="M324.97 274.6q-3.68 1.38-1.57 7.34" vector-effect="non-scaling-stroke"/><path stroke="#ffac8e" d="m323.4 281.94.52 14.44q.02.57.58.65l7.97 1.17q.48.07.49-.41c.08-5.99.83-26.08-7.99-23.19" vector-effect="non-scaling-stroke"/><path stroke="#d59f80" d="m323.4 281.94 1.57-7.34" vector-effect="non-scaling-stroke"/><path stroke="#b83c04" d="M631.5 418.79q-5.42 6.43-12.16 11.48c-1.54 1.15-1.66 2.12-1.9 3.91" vector-effect="non-scaling-stroke"/><path stroke="#9d5632" d="M617.44 434.18q-20.8 18.51-48.5 24.83" vector-effect="non-scaling-stroke"/><path stroke="#ffac8e" d="m478.06 295.14.09 7a1.03 1.03 0 0 1-1.2 1.03l-21.85-3.6q-.44-.07-.43.37l.6 18.65a.32.32 0 0 0 .53.24c9.13-7.37 22.89-7.08 33.91-5.49q.84.12.9-.73.69-10.33-.8-19.63" vector-effect="non-scaling-stroke"/><path stroke="#d59f80" d="M489.81 292.98c-2.1-9.25-12.75-8.49-11.75 2.16" vector-effect="non-scaling-stroke"/><path stroke="#d44b0f" d="M489.81 292.98q-1.62-1.09-3.01-2.36c-1.99-1.82-3.58-2.79-5.94-1.23a1.47 1.43 85.7 0 0-.51.61l-2.29 5.14" vector-effect="non-scaling-stroke"/><path stroke="#d59f80" d="m529.49 357.03 7.61-14.34q.26-.48.03-.98l-9.46-21.23" vector-effect="non-scaling-stroke"/><path stroke="#ffac8e" d="m527.67 320.48-6.37-15.5a.27.27 0 0 0-.52.13c2.14 21.74 1.12 44.73.58 66.62q-.01.77.35.09l7.78-14.79" vector-effect="non-scaling-stroke"/><path stroke="#d44b0f" d="M527.67 320.48q3.43 11.13 8.7 21.46.24.47.01.94-1.06 2.12-2.17 4.2c-.89 1.66-2.73 3.65-3.42 6.06a1.58 1.5-12.9 0 1-.53.8q-1.97 1.6-.77 3.09" vector-effect="non-scaling-stroke"/><path stroke="#ffac8e" d="M478.62 348.15q-.69 6.77-.08 14.79.36 4.68 2.39 7.87c2.07 3.25 8.68 5.13 9.41-.49 1.32-10.06.61-20.68.31-30.78" vector-effect="non-scaling-stroke"/><path stroke="#d59f80" d="m490.65 339.54.2-3.07q.04-.58-.53-.64c-8.65-.91-13.49 3.28-11.7 12.32" vector-effect="non-scaling-stroke"/><path stroke="#d44b0f" d="M490.65 339.54q-.22-1.78-1.38-1.99-9.76-1.72-10.65 10.6" vector-effect="non-scaling-stroke"/><path stroke="#ba5c41" d="M666.38 399.63c-8.1 6.14-15.42 14.4-25.16 21.31" vector-effect="non-scaling-stroke"/><path stroke="#ab5435" d="M641.22 420.94c-7.65 5.34-15.67 8.94-23.78 13.24" vector-effect="non-scaling-stroke"/><path stroke="#cc9577" d="M355.21 332.07c.71 10.5-.46 25.1-13.53 26.68" vector-effect="non-scaling-stroke"/><path stroke="#d5d2d3" d="M390.63 405.66q-6.82 5.32-13.17 11.18c-2.43 2.25-8.32 4.72-4.02 8.96 2.34 2.3 8.22 6.11 7.98 9.54a.99.97-14.6 0 1-.46.77c-7.77 4.77 5.92 11.83 9.96 13.72q.08.03-.01.06l-.34.12q-.25.08-.02.21 11.55 6.22 23.91 10.63.52.19 1.07.1.75-.11 1.05.44.26.49.82.54c3.98.39 7.49 4.19 11.28 5.37q6.67 2.06 13.31 4.09c4.08 1.24 7.13-.1 11.48 2.32" vector-effect="non-scaling-stroke"/><path stroke="#d8c1bf" d="M453.47 473.71q-4.54 3.75-9.46 5.81" vector-effect="non-scaling-stroke"/><path stroke="#ebd4cc" d="M444.01 479.52c-24.76 6.32-43.06 16.46-56.32 39.12" vector-effect="non-scaling-stroke"/><path stroke="#f6e1da" d="m387.69 518.64-6.8 13.19" vector-effect="non-scaling-stroke"/><path stroke="#e7cfcc" d="M710.3 436.31c-4.08-7.97-6.59-16.15-11.26-23.84" vector-effect="non-scaling-stroke"/><path stroke="#d8c1bf" d="m699.04 412.47-6.54-10.23" vector-effect="non-scaling-stroke"/><path stroke="#ceb5b4" d="M692.5 402.24c-3.17-6.01-9.13-9.34-11.39-15.13" vector-effect="non-scaling-stroke"/><path stroke="#b88a86" d="m692.5 402.24-1.24-1.34q-.55-.61-.33.18l.27.97a.87.85 59.2 0 1-.2.82c-1.87 1.98-2.59 4.44-4.19 6.29-2.08 2.41-4.61 4.41-5.59 7.58-1.25 4.05-3.53 9.53-7.33 11.84q-.32.2-.64 0-.27-.17-.49-.06c-3.67 1.7-7.62 2.92-10.28 5.95-2.66 3.01-4.13 6.69-6.86 9.23-2.59 2.41-6.11 5.97-9.81 6.3-2.64.24-3.85.84-5.97 1.88a.09.08-87.7 0 1-.11-.12l.13-.22q.43-.73-.31-.32-7.93 4.39-9.83 6.52-6.99 7.84-16.96 10.94-1.5.46-4 2.35-2.49 1.88-7.82 2.95a1.08 1.04-66.4 0 0-.39.16l-1.2.81a.19.18 6.9 0 1-.23-.29q1.89-1.69 4.38-2.18.59-.11 0-.21c-.92-.16-1.13.04-2.03.58q-.69.4-1.36.11-.44-.19-.9-.05c-6.1 1.92-9.6 5.53-15.03 8.22q-.45.22-.77.6-1.02 1.22-3.49 1.7-4.36.85-9.05 4.05c-4.49 3.06-14.75 6.17-20.12 5.64q-5.29-.53-10.6-.39c-2.82.07-5.6-.75-8.54-.77q-.27 0-.31-.26-.02-.17-.1-.29-.12-.17-.46-.22-11.11-1.52-22.26-3.16" vector-effect="non-scaling-stroke"/><path stroke="#9f756f" d="M508.48 488.03q3.56-.3 9.01.81c4.45.92 10.81 1.43 16.36 1.46 5.01.02 11.06.97 15.62-.7 6.61-2.43 11.1-8.68 17.99-10.16 4.5-.97 8.08-1.95 12.22-4.69q4.34-2.87 9.49-4.13.43-.11.75-.4.44-.4-.12-.22-1.79.58-3.57 1.18-.48.16-.84-.13-.54-.43.13-.59c7.87-1.96 8.5-7.41 14.24-11.32q4.24-2.88 8.92-4.93c2.63-1.15 5.5-3.13 8.33-3.94 7.35-2.12 13.38-9.47 17.76-15.37 3.08-4.15 5.84-4.56 10.11-7.16q.09-.05.11-.15.02-.12-.01-.27-.02-.11-.12-.06-2.39 1.09-5.1 1.06a.1.1 0 0 1-.03-.2q1.43-.5 2.74-1.33a.14.14 0 0 0-.1-.26l-3.14.44q-.73.1-.18-.39 2.21-1.96 2.17-5.64" vector-effect="non-scaling-stroke"/><path stroke="#d1a49f" d="m699.04 412.47.88 3.02q.14.49-.13.92-4.79 7.82-12.74 12.11c-2.61 1.41-4.33 3.48-7.22 5.09q-4.26 2.39-6.74 6.56c-2.35 3.96-5.52 6.61-8.42 9.96-1.76 2.03-3.83 2.87-6.19 3.88a.08.08 0 0 0 .01.15q.14.05.29.1.32.08.02.23-.63.3-1.06.88-.4.54.18.21.73-.41 1.54-.62 1.12-.28.11.28c-3.88 2.15-7.03 3.88-10.35 7.17-6.44 6.39-14.4 11.06-22.15 14.62-1.56.71-2.96 1.93-4.7 2.72-3.58 1.6-6.39 3.51-9.46 5.62q-.09.07-.13-.04-.02-.05-.04-.11-.08-.22-.28-.12-1.79.89-4.44 3.17c-8.3 7.16-16.83 5.91-27.08 8q-.12.02-.2.11-.21.24-.53.43-.27.16-.58.2c-4.93.6-9.68 1.76-14.67.98-7.34-1.13-14.9-1.57-22.1-3.39q-2.99-.76-6.12-.82-.55-.01-.72.52l-.15.47q-.14.46-.54.73c-4.57 3.16-10.73 1.7-13.13 6.61" vector-effect="non-scaling-stroke"/><path stroke="#d5a99e" d="M522.2 502.11q-15.49-10.94-33.18-17.12c-2.62-.92-6.07-1.29-9.21-2.31-10.72-3.46-24.63-3.69-35.8-3.16" vector-effect="non-scaling-stroke"/><path stroke="#bfa7a5" d="m453.47 473.71 5.57.71" vector-effect="non-scaling-stroke"/><path stroke="#a9827a" d="M459.04 474.42q18.25 5.53 36.96 9.57.35.07 1.04.66.39.32.89.38 5.61.6 10.55 3" vector-effect="non-scaling-stroke"/><path stroke="#a6938e" d="M458.67 471.3q-1.38.61-1.82 1.33-.33.53.27.73 1.17.39 1.92 1.06" vector-effect="non-scaling-stroke"/><path stroke="#eebcb9" d="m711.9 439.83-6.56 6.32q-.36.35-.81.59-2.87 1.51-4.98 4.02-.3.36-.76.47-2.4.61-4.13 2.34-.36.37-.87.48-.77.15-1.57.55-.42.21-.73.57-1.68 1.97-3.9 3.28c-2.56 1.5-3.31 3.28-4.92 4.96q-.2.21-.18.37.02.14.14.05l2.92-2.51q.47-.4.37.21-.04.21-.16.4-.78 1.21.18.26l.25-.25a.2.12-14.7 0 1 .32.09q-.33.34-.39.65-.11.52.32.21l1.27-.91q.99-.71.36.32c-3.16 5.17-10.81 9.77-15.84 11.68a.1.1 0 0 0 0 .18q.16.06.32.08.44.07.09.34-7.06 5.62-14.19 11.12-1.65 1.27-3.79 1.66c-9.64 1.74-19.15 4.63-27.16 9.85-1.63 1.06-3.61 1.49-5.3 2.62-9.8 6.56-23.88 4.72-34.64 5.22q-.86.04-1.45.44-.37.25-.83.25-5.36.05-10.53 1.52-.12.03-.26-.01-.27-.09-.02-.23l.47-.25q.58-.31-.07-.23-8.34 1.02-12.94 5.15-3.18 2.86-6.52 5.6c-2.27 1.85-5.09 2.14-7.29 4.76" vector-effect="non-scaling-stroke"/><path stroke="#efc4ba" d="m548.12 522.05-15.78-12.85" vector-effect="non-scaling-stroke"/><path stroke="#e4b7ac" d="m532.34 509.2-10.14-7.09" vector-effect="non-scaling-stroke"/><path stroke="#fed4cd" d="M724.23 504.5q-.2-.04-.31-.21a.06.05-50.3 0 0-.1.01q-.05.15-.08.29-.04.16-.2.12c-4.54-1.11-8.6-.32-13.2-.88q-2.58-.32-5.23.26a1.48 1.44 50.9 0 1-.95-.11c-5.16-2.51-7.19-4.99-10.92-10.04-2.75-3.73-6.03-4.45-9.21-7.14-6.84-5.8-8.74-2.5-15.71-1.42a.09.09 0 0 1-.09-.14q.28-.38.63-.53a.34.33 25.9 0 0-.22-.63q-2.04.53-4.35 2.72-3 2.84-9.74 4.12a1.44 1.42 13.4 0 0-.86.52q-1.72 2.14-4.23 3.27-.22.11-.02.25.11.08.27.08.18 0 .03.1-1.82 1.28-3.93 1.34c-2.17.06-2.92.58-4.77 1.23-2.73.97-4.3 3-7.58 3.43q-.5.06-.89.38c-6.32 5.22-13.98 5.1-21.11 8.54-2.45 1.19-4.95-.29-7.09-.31-2.9-.02-5.55-.04-8.46.33-4.15.53-7.06.45-10.44 3.78q-.4.39-.95.39h-1.01q-.47 0-.8.33l-1.86 1.86a.21.2-22.8 0 1-.35-.14v-.53q0-.53-.33-.12-2.3 2.86-5.57 4.41c-1.58.76-2.23 1.87-3.66 2.79-3.64 2.35-6.78 5.27-9.9 8.09q-1.31 1.19-2.73.14l-2.56-1.89" vector-effect="non-scaling-stroke"/><path stroke="#fdcec6" d="m555.75 529.19-7.63-7.14" vector-effect="non-scaling-stroke"/><path stroke="#f3c9b9" d="M532.34 509.2c-4.32 2.45-9.03 3.32-13.14 5.85q-2.51 1.55-4.19 1.98c-19.55 5.08-38.49 11.94-58.7 11.65-16.79-.25-31.33-1.92-48.64-5.4-6.04-1.22-12.23-.41-18.22-1.97q-1.55-.41-1.76-2.67" vector-effect="non-scaling-stroke"/><path stroke="#ffdcce" d="M592.39 609.72q1.49-.35 2.62.22.38.19.81.18l5.8-.17a1.36 1.36 0 0 0 1.21-1.9c-5.34-12.27-10.66-24.81-17.55-36.31q-4.5-7.5-9.18-14.9-8.74-13.82-20.53-24.71a2.29 2.29 0 0 1-.56-2.57q.13-.33.74-.37" vector-effect="non-scaling-stroke"/><path stroke="#fff0ea" d="M344.2 585.02c-1.14-4.13-2.75-7.83-8.08-6.11q-.45.15-.53.62-1.64 10.7 3.26 20.34 1.4 2.76 3.77.29a2.09 1.84-14.9 0 0 .4-.6q3.21-7.2 1.18-14.54" vector-effect="non-scaling-stroke"/></g><path fill="#fff" d="M0 0h1000v675H633.69c6.88-.76 14.95-2.98 19.91-8.16 10.72-11.18 19.29-26.97 29.87-39.83 9.39-11.44 13.68-20.4 19.2-34.41 4.66-11.82 11.64-24.58 14.33-36.84q2.54-11.59 7.03-47.54.23-1.85.2-3.72.12-4.1-.04-5.44c-2.42-20.3-3.25-40.52-12.29-59.23l-1.6-3.52c3.41-3.27 9.6-7.63 11.4-11.78q2.85-6.59 5.63-13.21c.66-1.57 4.04-2.34 5.29-3.83q1.92-2.29 2.14-5.23.68-8.85 1.59-17.64.05-.48-.16-.93-1.49-3.31-1.18-6.92.04-.45-.1-.88l-.62-1.88q-.18-.55.17-1.02c3.3-4.31-5.57-13.52-8.82-16.5-3.42-3.14-5.1-5.54-6.83-10.09q-1.28-3.37-4.33-3.82c9.5-16.77 12.89-31.06 17.84-51.77 6.7-27.99.67-56.08-9.6-82.34-9.46-24.21-25.94-41.2-45.94-57.33-8.29-6.22-17.76-10.64-26.13-14.98-10.4-5.39-19.47-7.79-29.59-11.05q-10.54-3.39-16.35-4.39c-41.7-7.22-81.9 13.71-104.76 48.55q-10.16 1.45-19.94 4.72c-1.57.81-2.63 1.42-4.49 1.39-88.52-1.71-121.93 87.47-109.64 161.25l-8.69-.32a.62.61-2.2 0 1-.59-.54q-.27-2.12-1.39-3.7.12-.31-.03-1.1.09-.2.09-.37-.01-.32-.33-.38l-19.77-3.67q-.6-.11-.63.49c-.13 2.48 1.14 15.42-3.97 14.89-4-.42-4.71-5.78-4.96-9.05q-.78-9.85-1.02-19.74-.01-.59.57-.49l28.88 5.19a.62.62 0 0 0 .73-.63q-.2-12.72-1.21-24.71c-1.65-19.85-9.3-33.16-31.06-34.46-16.16-.96-19.47 12.41-19.55 25.21q-.11 16.05.76 32.07c.94 17.54 3.74 36.99 23.25 42.11q-.18.62.01.95.21.35.53.08.44-.37.95.02.27.21 0 .43-5.27 4.23-7.51 4.52-4.19.54-7.91 2.57a1.9 1.82-57.6 0 1-.93.23c-3.99-.09-7.63 1.32-11.38 1.51q-5.14.26-10.1 1.5c-6.63 1.66-12.24 2.79-18.57 3.26-4.28.32-10.17 2.68-10.56 7.78-.27 3.46.19 4.95-3.47 5.52q-3.34.53-6.1 3.34a.43.42-75.2 0 1-.22.13l-5.91 1.65q-.51.15-.99-.09-2.18-1.09-3.81-3.01-.33-.39-.4-.89c-.61-4.01-4.98-3.37-7.71-2.11-2.9 1.34-5.69 4.41-8.3 6.54q-.57.47-.33 1.17l.98 2.96q.18.53.71.73c5.3 2.01 9.29 5.64 13.99 7.88q11.25 5.36 22.26 11.21 4.85 2.57 9.14 3.81c7.15 2.05 12.62 5.73 19.44 8.01 4.89 1.64 9.85 5.17 14.4 7.68q1.32.72.94 2.9a.53.53 0 0 1-.63.43q-3.76-.8-7.25.56a2.17 2.08-49.8 0 1-1.14.12q-5.97-1-10.97 1.89c-8 4.62-16.92 5.4-25.88 3.78-5.56-1-11.71-1.47-14.64 4.1a1.59 1.53 57.3 0 0-.17.86c.74 8.45 3.4 11.86 8.69 18q.29.35.72.5 2.26.78 3.54 2.7.25.38.67.54 6.4 2.49 12.19 6.08c5.47 3.39 8.98 5.47 13.44 8.25 2.54 1.59 5.79 2.06 8.32 4.67a1.46 1.45-17 0 0 .8.42q4.69.87 6.01 1.59c15.06 8.18 29.01 17.34 46.1 22.2q3.82 1.08 7.82 2.97 8.71 4.09 18.15 6.17a1.46 1.45-14.8 0 1 .76.44q.64.69 1.49.4.52-.18 1.06-.08 4.99.91 5.7 7.53c-3.8 8.09-5.41 18.51-6.86 27.31-1.33 8.05-.99 17.76-.2 26.15.5 5.45.15 11.11 1.04 16.23q1.75 10.08 4.2 19.58a.47.47 0 0 0 .93-.16c-1.88-24.02-1.14-48.74-.39-73.26q.01-.63.64-.68 1.34-.12 2 .97.27.44.74.64c6.22 2.72 10.08 2.28 15.85 2.92q.45.05.49.5l5.46 68.14q.02.18.19.24.16.06.33.11.07.02.07-.05l2.05-65.7q.02-.59.59-.46 8.02 1.77 11.99 3.64 3.82 1.8 7.64 1.06a.94.94 0 0 1 1.12.84c.34 4.32.09 8.6.71 12.81q2.41 16.58 2.31 33.35c-.01 1.35.56 2.74.56 3.93q.01 9.16.44 18.32.01.23.23.22.16-.01.27-.12.13-.11.16-.4c1.43-12.82.51-25.72 1.29-38.61.19-3.16-.24-6.93.12-10.17q1.03-9.41 1.23-16.28.02-.47.48-.57c3.62-.79 14.41 3.36 18.07 4.98a.89.89 0 0 0 1.11-.33q2.07-3.17 5.24-5.39.38-.27.84-.33 6.23-.82 12.28.65c8.46 2.04 13.98 9.27 17.16 16.7a.74.74 0 0 0 1.34.05c1.09-2.13.85-5.9 1.98-7.42q1.02-1.37 2.94-.76 10.96 3.46 22.14 6.28a.91.89-.5 0 1 .64.62l2.6 8.6a3.11 3.09-89.5 0 0 2 2.05q6.01 1.96 12.31 4.45c4.44 1.75 5.99 4.18 7.7 8.34q3.73 9.05 6.88 17.73a1.16 1.16 0 0 0 2.09.2l10.8-18.15q.21-.36.57-.14 3.6 2.12 8.99 3.28 6.56 1.4 18.14 5.98l2.03.89a.56.55 24.5 0 1 .28.73q-2.87 6.24-5.74 10.62-10.12 15.42-17.44 29.82-.23.47-.08.96 3.24 10.29 8.55 19.71c2.02 3.57 10.72 2.22 14.46 2.55H461.18l6.88-1.1q.74-.12.06-.44c-6.49-3.05-8.14-8.23-10.37-14.95q-.73-2.21-3.05-3.96a1.41 1.41 0 0 0-.9-.28q-3.26.1-6.07-1.59a1.6 1.58-31.2 0 0-.91-.22c-2.77.2-4.65.28-7.14-1.04q-6.06-3.22-8.85-9.14a1.44 1.44 0 0 0-2.23-.48c-4.16 3.53-6.77 6.4-12.68 3.58q-1.49-.71-3.37-2.92-4.25-4.99-9.82-8.52-.43-.27-.93-.21c-5.21.59-11.16-1.46-15.99-3.29-1.49-.56-2.43-1.62-3.82-2.49q-.55-.34-.46.3c1.82 14.25 9.68 28.52 16.94 41.27q1.44 2.54 3.18 4.35a1.37 1.32 69.8 0 0 .87.42l7.92.71H0V0Zm242.7 214.22a.36.36 0 0 0-.32-.34l-18.95-2.45a.36.36 0 0 0-.4.38l1.39 21.09a.36.36 0 0 0 .31.33l18.78 2.74a.36.36 0 0 0 .41-.38l-1.22-21.37Zm-46.04 48.73q-.09-4.29 1.38-8.26 2.86.46 3.72 1.56c2.61 3.33 2.96 11.03 2.97 14.99a1.18 1.17 4.6 0 0 .99 1.16l16.7 2.78q.51.08.53-.43c.62-12.24-3.16-28.34-15.51-33.17-16.36-6.39-28.3-2.2-28.43 17.17q-.16 23.38 3.21 46.5c1.69 11.66 6.4 22.46 18.73 26.02 24.7 7.14 26.49-11.03 23.87-28.94q-.07-.47-.53-.56l-17.56-3.29a.43.42 4.4 0 0-.51.43c.15 4.82 1.23 12.71-.35 17.15q-.18.49-.69.59c-4.72.96-4.96-5.19-5.2-8.22q-1.79-22.98-3.32-45.48Zm52.3 76.51a.63.63 0 0 0 .75-.65l-5.08-90.13a.63.63 0 0 0-.54-.58l-18.26-2.68a.63.63 0 0 0-.72.66l5.35 89.1a.63.63 0 0 0 .5.58l18 3.7Zm21.76-61.7q-.33-4.27 1.31-8.11c6.21.49 5.53 11.5 5.71 15.37q1.44 30.15 3.02 60.42.03.56.58.67l19.5 3.9a.34.34 0 0 0 .41-.35q-1.42-31.69-2.92-63.36c-.57-11.97.34-32.7-16.11-34.47-6.14-.66-9.01 3.45-12.01 7.85a.33.33 0 0 1-.6-.16l-.59-6.72a1.14 1.13 1.9 0 0-.97-1.03l-17.24-2.58q-1.48-.22-1.39 1.27l4.89 89.34q.04.77.8.92l18.09 3.64a.71.71 0 0 0 .85-.73l-3.33-65.87Zm-56.67 222.87a1.09 1.09 0 0 1 2.02-.3q2.51 4.52 3.22 8.66c.55 3.19.83 11.3 3.37 13.36 3.43 2.78 10.49 5.4 15.23 4.17a.66.65 82.2 0 0 .49-.65c-.38-10.71-1.28-23.55-9.58-31.45-2.19-2.09-5.55-3.54-8.25-5.38q-.05-.04-.05-.1v-.36q0-.08-.07-.12-8.59-4.79-16.51-1.81c-7.06 2.67-7.56 11.22-7.57 17.6q-.05 21.02 3.4 41.76c1.34 8.05 6.01 17.32 13.04 22.04q6.86 4.59 14.42 5.05c12.69.77 12.79-11.68 11.64-19.9-.8-5.78-4.93-8.37-10.8-8.49q-4.02-.08-4.8 2.99c-1.11 4.34-2.36 7.91-2.29 12.51q.01.87-.8.56l-.72-.28q-.58-.22-.44-.83.22-.95-.55-.97-.59-.02-.74-.59c-4.08-15.73-4.72-32.1-4.73-48.6 0-3.03.5-6.06 1.07-8.87Zm40.98 81.13c6.55 6.39 6.91-5.84 6.75-8.51-1.19-20.52-1.26-40.76-2.96-66.58-.33-4.91-2-5.07-6.4-7.06q-4.72-2.13-9.86-3.21a.57.57 0 0 0-.66.38q-1.57 4.84-1.42 8.47.31 7.61 2.03 24.25c1.19 11.61.63 28.92 3.82 43.68 1.08 5 3.03 7.58 8.09 8.28a1.13 1.09 70.2 0 1 .61.3Zm33.21 8.31c3.15 3.19 7.11 6.7 11.41 8.12 10.68 3.53 11.68-12.48 11.41-18.68-.9-20.66-1.02-41.5-2.68-62.11q-.05-.61-.62-.82l-12.44-4.61q-.46-.17-.95-.09-1.68.29-3.2-.59a.75.74-69.9 0 0-1.1.52q-.68 3.92-.42 7.43 1.68 23.16 2.55 46.37c.19 5.19-.37 9.65-1.44 14.48a1.03 1.03 0 0 1-1.94.2q-.43-.94-1.15-1.9c-1.52-2.01-2.7-8.41-2.82-10.94q-1.2-25.07-2.19-50.14c-.08-2.07.06-7.83-2.93-9.27q-5.18-2.48-13.05-3.67-.49-.07-.9-.34l-1.08-.72a.44.44 0 0 0-.68.36c-.41 22.55 3.3 45.13 3.76 67.32.11 5.58 1.18 13.79 6.2 17.11q6.03 3.98 13.37 1.75.51-.16.89.22Zm49.17-51.39c5.46 2.65 4.75 16.97 9.74 18q7.4 1.54 13.48 5.97.41.3.52-.19c2.8-11.73-.2-21.29-7.66-30.44-6.36-7.81-27.18-16.42-34.75-6.47q-2.12 2.78-3.03 8.88c-2.1 14-.59 26.34.34 39.56 1.2 17.17 6.63 34.07 25.47 38.62 7.87 1.9 15.46 3.03 18.74-6.35 3.17-9.09 2.76-18.55 2.39-28.95q-.07-2.09-.92-3.93a.63.62 85.6 0 0-.4-.35l-24.5-7.39a2.16 2.15-89.5 0 1-1.45-1.48c-2.22-8.06-2.97-17.6 1.26-25.24q.27-.49.77-.24Zm150.17 81.81a1.84 1.84 0 0 0 2.4-.05q1.45-1.29 1.59-4.12c.45-9.03 1.56-20.26-3.39-28.42-1.04-1.71-2.88-2.08-4.16-.55-3.96 4.75-2.91 19.13-1.77 24.85q.92 4.64 5.33 8.29Zm-238.27-29.52c-3.66 8.67.39 19.22 10.61 20.32q.53.06.75-.44c3.04-6.96 1.25-11.27-2.15-18.62q-.79-1.72-2.51-.58-.4.26-.77-.03-2.06-1.56-4.63-1.52a1.43 1.42 11 0 0-1.3.87Zm272.65 20.75 1.71 45.97q.01.24.12.44l.29.47a.42.42 0 0 0 .74-.01c2.25-4.18 10.15-15.77 9.22-19.84q-1.29-5.56-7.65-20.7-1.53-3.65-3.69-6.59a.41.41 0 0 0-.74.26Zm-60.85 17.58c-4.19 9.84 11.2 12.22 17.08 13.83a2.07 2.05 86.7 0 1 1.38 1.24l6.09 15.85q.37.96 1.37 1.2 3.02.7 3.65-1.87c4.49-18.43-9.08-17.72-19.54-25.78q-3.45-2.65-6.93-5.29a2.03 2.03 0 0 0-3.1.82Z"/><path fill="#f30763" d="m676.78 151.14-2.16 1.31q-.44.26-.84-.04-6.8-5.13-14.79-8.06-.38-.14-.38-.54v-.9q0-.46-.37-.73-3.46-2.48-7.49-3.76a.78.75 89.7 0 1-.49-.5q-.33-1.03-1.52-.92a2 1.94 53.3 0 1-.93-.15c-3.49-1.5-7.11-2.05-10.69-3.35-9.35-3.4-21.25-3.41-30.83-3.39q-9.85.01-19.07 1.81-33.27 6.51-58.38 30.07l-12.55 4.72-16.34 2.56c22.86-34.84 63.06-55.77 104.76-48.55q5.81 1 16.35 4.39c10.12 3.26 19.19 5.66 29.59 11.05 8.37 4.34 17.84 8.76 26.13 14.98Z"/><path fill="#f12c33" d="M676.78 151.14c20 16.13 36.48 33.12 45.94 57.33 10.27 26.26 16.3 54.35 9.6 82.34-4.95 20.71-8.34 35-17.84 51.77q-4.17 6.94-8.9 13.25c-8.05 10.74-15.02 21.53-24.47 31.28l-14.73 12.52q-.62-1.55 2.72-4.05 8.68-11.75 15.03-25.58 1.39 1.49 3.06-.31 9.26-10.02 19.48-24.77l.59 1.23a1.19 1.18-47 0 0 2.17-.08q6.27-15.83 8.53-32.79 1.6-.53 2.24-2.3 8.34-23.07 9.11-47.78 1.35.17 1.19-.69-.62-3.27-1.75-11.26-1.46-10.31-6.96-19.88c-24.58-54.84-72.4-86.45-133.52-83.49-7.55.37-14.63 1.67-21.76 3.64q-.24.07-.41-.06-.34-.26.07-.41c16.66-6.08 37.71-5.94 54.94-2.62 45.06 8.71 82.91 38.16 100.42 80.51q.68 1.65 1.9.81a.97.96-27.6 0 0 .36-1.13c-2.41-6.61-4.07-13.83-6.49-19.69-9.44-22.85-22.36-37.11-43.69-49.81q-32.19-19.15-70.54-17.88c-9.31.3-18.27 2.06-27.23 4.43a.66.66 0 0 1-.6-1.13l.23-.2q.08-.08-.03-.06c-11.99 1.53-23.61 9.4-34.16 15.96l-5.27 1.16q-4.17 1.21-7.17.59 25.11-23.56 58.38-30.07 9.22-1.8 19.07-1.81c9.58-.02 21.48-.01 30.83 3.39 3.58 1.3 7.2 1.85 10.69 3.35a2 1.94 53.3 0 0 .93.15q1.19-.11 1.52.92a.78.75 89.7 0 0 .49.5q4.03 1.28 7.49 3.76.37.27.37.73v.9q0 .4.38.54 7.99 2.93 14.79 8.06.4.3.84.04l2.16-1.31Z"/><path fill="#f3320f" d="M721.79 231.37q6.23 15.75 7.52 31.83-.77 24.71-9.11 47.78-.64 1.77-2.24 2.3c9.11-77.25-44.76-149.23-122.89-159.01-5.78-.72-12.27-.56-18.4-.69-8.13-.17-15.94 1.27-24.03 2.12q-.24.02-.16.25.04.12.09.26.05.17.22.16c6.59-.43 13.87-1.77 19.61-2.06 55.2-2.81 106.42 29.35 130.92 78.43 15.17 30.41 19.37 66.86 9.67 99.01q-1.69 5.59-6.32 13.17-10.22 14.75-19.48 24.77-1.67 1.8-3.06.31c38.96-89.27-21.7-198.49-119.56-209.03-6.94-.74-15.4-.33-23.29-.73 10.55-6.56 22.17-14.43 34.16-15.96q.11-.02.03.06l-.23.2a.66.66 0 0 0 .6 1.13c8.96-2.37 17.92-4.13 27.23-4.43q38.35-1.27 70.54 17.88c21.33 12.7 34.25 26.96 43.69 49.81 2.42 5.86 4.08 13.08 6.49 19.69a.97.96-27.6 0 1-.36 1.13q-1.22.84-1.9-.81c-17.51-42.35-55.36-71.8-100.42-80.51-17.23-3.32-38.28-3.46-54.94 2.62q-.41.15-.07.41.17.13.41.06c7.13-1.97 14.21-3.27 21.76-3.64 61.12-2.96 108.94 28.65 133.52 83.49Z"/><path fill="#fe581c" d="M717.96 313.28q-2.26 16.96-8.53 32.79a1.19 1.18-47 0 1-2.17.08l-.59-1.23q4.63-7.58 6.32-13.17c9.7-32.15 5.5-68.6-9.67-99.01-24.5-49.08-75.72-81.24-130.92-78.43-5.74.29-13.02 1.63-19.61 2.06q-.17.01-.22-.16-.05-.14-.09-.26-.08-.23.16-.25c8.09-.85 15.9-2.29 24.03-2.12 6.13.13 12.62-.03 18.4.69 78.13 9.78 132 81.76 122.89 159.01Z"/><path fill="#fd8d30" d="M541.28 160.24c7.89.4 16.35-.01 23.29.73C662.43 171.51 723.09 280.73 684.13 370q-6.35 13.83-15.03 25.58-1.77.29-2.28-.67-.24-.44.12-.79c13.07-12.51 20.96-33.98 24.65-51.43 5.78-27.25 3.81-53.99-5.4-80.81q-.98-3.8-2.62-7.66c-23.03-54.21-75.3-95.28-136.06-92.88q-5.64.22-11.5.06l5.27-1.16Z"/><path fill="#fe581c" d="M686.19 261.88q-.92 3.46-4.36 1.17-.46-.3-.38.24l.06.43q.08.59-.42.26c-1.7-1.16-2.96-2.07-4.2-3.91q-1.12-1.68-2.09-2.38-11.75-8.4-22.12-18.41c-1.25-1.21-1.28-2.57-3.08-3.65-5.08-3.05-9.15-7.22-14.46-10.22q-.74-.41.11-.41h.47a.14.14 0 0 0 .08-.26l-3.64-2.65q-.24-.18-.16.11.05.14.06.28.08.57-.44.31c-3-1.47-6.1-4.41-8.83-4.82a1.03 1.02-61.9 0 0-.84.26q-.86.78-.81 2.13c-24.94-29.92-60.32-50.87-99.65-52.3l-5.2-1.35 12.55-4.72q3 .62 7.17-.59 5.86.16 11.5-.06c60.76-2.4 113.03 38.67 136.06 92.88q1.64 3.86 2.62 7.66Z"/><path fill="#f15801" d="m516.29 166.71 5.2 1.35q25.24 2.49 45.94 12.26c54.18 25.59 87.85 81.89 92.05 140.9-2.6 1.96-4.97.11-6.4-2.36q-5.46-9.41-12.77-17.44c-5.3-5.82-9.07-12.34-14.74-18.07q-7.96-8.03-15.27-17.9-1.48-2-4.16-3.84-.08-.06-.08-.05-.04.13-.08.27-.04.15-.15.04c-4.68-4.06-8.27-8.36-12.52-12.79-1.95-2.02-4.55-3.47-5.78-5.1-1.34-1.76-2.12-3.59-3.63-5.46q-1.31-1.62-1.95-3.69a1.28 1.26-84.4 0 0-.61-.76q-1.43-.81-3.04-1.1-.43-.07-.76-.35-1.44-1.17-3.14.67c-22.86-30.31-54.8-52.86-93.16-57.93q-.86-.12-1.49.14-.04-.68.26-1.51 9.78-3.27 19.94-4.72l16.34-2.56Z"/><path fill="#fd8d30" d="M521.49 168.06c39.33 1.43 74.71 22.38 99.65 52.3q21.1 25.31 31.5 56.73c15.98 47.63 11.14 100.79-19.71 141.57q-1.04 1.37-1.43.13 10.96-13.99 17.75-30.55 12.44-32.22 10.23-67.02c-4.2-59.01-37.87-115.31-92.05-140.9q-20.7-9.77-45.94-12.26Z"/><path fill="#fe581c" d="M480.01 173.99q-.3.83-.26 1.51-.29.11-.41.25-.31.41.2.48c64.75 8.46 107.64 64.33 124.87 123.06 6.99 23.84 9.21 50.87 6.16 77.03q-.53 4.56-2.46 10.34-.16.5.28.78.67.41 1.68.02c-5.27 27.48-20.52 52.89-41.13 71.55-26.59 20.25-56.33 28.71-89.45 19.8-7.94-2.14-14.33-3.94-20.82-7.51-28.94-15.58-50.91-36.43-68.04-65.64q-18.57-32.01-24.75-69.03C353.59 262.85 387 173.67 475.52 175.38c1.86.03 2.92-.58 4.49-1.39ZM404.1 367.63q-1.63 2.24 2.29 2.8c5.96.85 11.93 2.15 17.65 3.45a1.15 1.15 0 0 0 1.4-1.14q-.02-.55-.53-1.01-.81-36.89-1.47-73.73-.03-1.9 1.34-3.18.36-.34.86-.35c5.56-.19 5.7 7.92 5.76 11.79q.53 33.16 1.01 66.4 0 .57.55.73l4.16 1.26q4.98 3.98 12.85 3.61.59-.03.92.47c2.18 3.36 3.84 8.28 6.86 10.73q5.24 4.25 11.85 5.62c9.53 1.97 12.77-.49 19.72-7.22a.54.54 0 0 1 .87.16l1.18 2.58q.21.46.06.95-.72 2.32.16 4.62a1.36 1.33 2.7 0 0 .66.71c3.61 1.74 7.34 1.56 11.1 2.61 4.36 1.22 8.29 1.64 12.97 3.18q1.9.63 4.49-1.55 1.47-1.08.62-5.9l1.92-.95q.41-.2.85-.09 8.15 2.08 13.3 2.61c2.61.27 4.41 1.83 6.12-1.15q5.06-8.8 10.12-18.44a.69.69 0 0 1 1.25.05l2.92 6.92q.24.58.75.21l.61-.46 6.87 15.58q.62 1.41 2.13 1.72l29.97 6.08a.49.49 0 0 0 .55-.68l-25.62-57.82q15.45-26.77 25.84-47.54.29-.58-.25-.81-.22-.48-.93-.59-15.44-2.34-31-4.62-.61-.09-.89.45l-10.2 20.04a.37.37 0 0 1-.67-.03l-9.79-22.9a1.66 1.65 82.9 0 0-1.27-.99l-23.31-3.49a1.2 1.2 0 0 1-.96-.85c-4.58-15.66-16.15-20.79-31.33-23.31-17.15-2.86-33.65-3.36-36.36 18.54a.41.41 0 0 1-.8.08c-1.74-5.12-5.92-7.24-11.07-8.32-8.75-1.83-12.66 2.39-17.71 8.69q-.41.51-.55-.13-2.16-9.83-10.96-12.64c-8.13-2.59-12.96.43-17.82 6.64q-.37.48-.66-.05-.48-.86-.09-1.72.21-.47.16-.98l-.35-3.52q-.14-1.33-1.46-1.52l-19.71-2.86a.85.85 0 0 0-.98.87l2.85 93.22a1.09 1.09 0 0 0 .87 1.03l20.42 4.1q.58.12.56-.47-1.07-35.43-1.81-70.87-.06-2.94 1.22-4.42a1.17 1.14 22 0 1 .98-.4c5.13.46 5.2 6.65 5.33 10.82q1.03 33.26 1.66 66.54.01.59.59.66l1.38.18Z"/><path fill="#fd8d30" d="M574.4 233.29q10.7 13.89 18.46 29.41c19.21 38.7 25.84 82.48 17.21 124.76q-1.01.39-1.68-.02-.44-.28-.28-.78 1.93-5.78 2.46-10.34c3.05-26.16.83-53.19-6.16-77.03-17.23-58.73-60.12-114.6-124.87-123.06q-.51-.07-.2-.48.12-.14.41-.25.63-.26 1.49-.14c38.36 5.07 70.3 27.62 93.16 57.93Z"/><path fill="#fe581c" d="m242.7 214.22 1.22 21.37a.36.36 0 0 1-.41.38l-18.78-2.74a.36.36 0 0 1-.31-.33l-1.39-21.09a.36.36 0 0 1 .4-.38l18.95 2.45a.36.36 0 0 1 .32.34Z"/><path fill="#f3320f" d="M686.19 261.88c9.21 26.82 11.18 53.56 5.4 80.81-3.34-3.61-2.39-6.93-3.53-10.7q-2.02-6.68-5.15-12.9-.2-.39-.47-.43-.39-.06-.54-.43c-3.48-8.78-8.42-16.2-13.93-24.65-2.5-3.85-10.76-16.11-15.33-16.49q-10.4-31.42-31.5-56.73-.05-1.35.81-2.13a1.03 1.02-61.9 0 1 .84-.26c2.73.41 5.83 3.35 8.83 4.82q.52.26.44-.31-.01-.14-.06-.28-.08-.29.16-.11l3.64 2.65a.14.14 0 0 1-.08.26h-.47q-.85 0-.11.41c5.31 3 9.38 7.17 14.46 10.22 1.8 1.08 1.83 2.44 3.08 3.65q10.37 10.01 22.12 18.41.97.7 2.09 2.38c1.24 1.84 2.5 2.75 4.2 3.91q.5.33.42-.26l-.06-.43q-.08-.54.38-.24 3.44 2.29 4.36-1.17Z"/><path fill="#fe581c" d="M721.79 231.37q5.5 9.57 6.96 19.88 1.13 7.99 1.75 11.26.16.86-1.19.69-1.29-16.08-7.52-31.83Z"/><path fill="#c63a06" d="M659.48 321.22q2.21 34.8-10.23 67.02-.55-.1-.98.59-.21.35-.3-.05c-.64-2.85-1.61-5.09-1.26-8.1.95-8.32 1.5-17.99-1.04-26.07-1.42-4.5-1.47-9.31-2.89-13.37q-3.59-10.26-8.78-19.85-.07-.12-.18-.13-.06-.01-.13-.01-.24 0-.34-.19-7.97-15.22-13.83-22.35-5.52-6.72-6.53-9.43-1.08-2.9-2.3-4.43l-1.57-1.98q-6.41-10.03-11.32-20.82-.2-.43-.66-.33l-4.28.98q-7.76-15.52-18.46-29.41 1.7-1.84 3.14-.67.33.28.76.35 1.61.29 3.04 1.1a1.28 1.26-84.4 0 1 .61.76q.64 2.07 1.95 3.69c1.51 1.87 2.29 3.7 3.63 5.46 1.23 1.63 3.83 3.08 5.78 5.1 4.25 4.43 7.84 8.73 12.52 12.79q.11.11.15-.04.04-.14.08-.27 0-.01.08.05 2.68 1.84 4.16 3.84 7.31 9.87 15.27 17.9c5.67 5.73 9.44 12.25 14.74 18.07q7.31 8.03 12.77 17.44c1.43 2.47 3.8 4.32 6.4 2.36Z"/><path fill="#fe581c" d="M198.04 254.69q-3.83 2.17-1.38 8.26 1.53 22.5 3.32 45.48c.24 3.03.48 9.18 5.2 8.22q.51-.1.69-.59c1.58-4.44.5-12.33.35-17.15a.43.42 4.4 0 1 .51-.43l17.56 3.29q.46.09.53.56c2.62 17.91.83 36.08-23.87 28.94-12.33-3.56-17.04-14.36-18.73-26.02q-3.37-23.12-3.21-46.5c.13-19.37 12.07-23.56 28.43-17.17 12.35 4.83 16.13 20.93 15.51 33.17q-.02.51-.53.43l-16.7-2.78a1.18 1.17 4.6 0 1-.99-1.16c-.01-3.96-.36-11.66-2.97-14.99q-.86-1.1-3.72-1.56ZM248.96 339.46l-18-3.7a.63.63 0 0 1-.5-.58l-5.35-89.1a.63.63 0 0 1 .72-.66l18.26 2.68a.63.63 0 0 1 .54.58l5.08 90.13a.63.63 0 0 1-.75.65ZM272.03 269.65q-3.12 1.47-1.89 7.26a.03.03 0 0 0 .06 0l.11-.35a.07.07 0 0 1 .13.03q-.03.86.28 1.17l3.33 65.87a.71.71 0 0 1-.85.73l-18.09-3.64q-.76-.15-.8-.92l-4.89-89.34q-.09-1.49 1.39-1.27l17.24 2.58a1.14 1.13 1.9 0 1 .97 1.03l.59 6.72a.33.33 0 0 0 .6.16c3-4.4 5.87-8.51 12.01-7.85 16.45 1.77 15.54 22.5 16.11 34.47q1.5 31.67 2.92 63.36a.34.34 0 0 1-.41.35l-19.5-3.9q-.55-.11-.58-.67-1.58-30.27-3.02-60.42c-.18-3.87.5-14.88-5.71-15.37Z"/><path fill="#aa3e01" d="M198.04 254.69q-1.47 3.97-1.38 8.26-2.45-6.09 1.38-8.26Z"/><path fill="#fe581c" d="M355.18 330.97q-.13.48-.45.89-.27.33-.24.76c.54 10.09-1.04 22.81-12.81 26.13q-6.96 1.28-14.72-1.32c-19.51-5.12-22.31-24.57-23.25-42.11q-.87-16.02-.76-32.07c.08-12.8 3.39-26.17 19.55-25.21 21.76 1.3 29.41 14.61 31.06 34.46q1.01 11.99 1.21 24.71a.62.62 0 0 1-.73.63l-28.88-5.19q-.58-.1-.57.49.24 9.89 1.02 19.74c.25 3.27.96 8.63 4.96 9.05 5.11.53 3.84-12.41 3.97-14.89q.03-.6.63-.49l19.77 3.67q.32.06.33.38 0 .17-.09.37Zm-30.21-56.37q-3.68 1.38-1.57 7.34l.52 14.44q.02.57.58.65l7.97 1.17q.48.07.49-.41c.08-5.99.83-26.08-7.99-23.19Z"/><path fill="#aa3e01" d="M649.25 388.24q-6.79 16.56-17.75 30.55-5.42 6.43-12.16 11.48c-1.54 1.15-1.66 2.12-1.9 3.91q-20.8 18.51-48.5 24.83c20.61-18.66 35.86-44.07 41.13-71.55 8.63-42.28 2-86.06-17.21-124.76l4.28-.98q.46-.1.66.33 4.91 10.79 11.32 20.82l1.57 1.98q1.22 1.53 2.3 4.43 1.01 2.71 6.53 9.43 5.86 7.13 13.83 22.35.1.19.34.19.07 0 .13.01.11.01.18.13 5.19 9.59 8.78 19.85c1.42 4.06 1.47 8.87 2.89 13.37 2.54 8.08 1.99 17.75 1.04 26.07-.35 3.01.62 5.25 1.26 8.1q.09.4.3.05.43-.69.98-.59Z"/><path fill="#fff" d="M598.76 300.45q-1.02.72-1.58 1.73-12.35 22.53-24.55 45.14-.28.53.54 1.48l25.62 57.82a.49.49 0 0 1-.55.68l-29.97-6.08q-1.51-.31-2.13-1.72l-6.87-15.58-4.43-10.83a.58.58 0 0 0-1.05-.05l-11.52 22.05a1.03 1.02 19.1 0 1-1.11.53l-19.36-3.92q-.54-.11-.51.44l.14 3.08q.85 4.82-.62 5.9l-27.71-5.77q-.5-.1-.54-.61l-1.14-12.5a.35.34-30.6 0 0-.63-.16c-1.73 2.55-3.58 5.5-5.55 7.36-10.37 9.77-26.22 2.21-31.7-9.07-.69-1.42-.72-2.69-2.53-3.14q-5.73-1.43-13.89-2.58l-4.16-1.26q-.55-.16-.55-.73-.48-33.24-1.01-66.4c-.06-3.87-.2-11.98-5.76-11.79q-.5.01-.86.35-1.37 1.28-1.34 3.18.66 36.84 1.47 73.73l-20.81-4.1-1.38-.18q-.58-.07-.59-.66-.63-33.28-1.66-66.54c-.13-4.17-.2-10.36-5.33-10.82a1.17 1.14 22 0 0-.98.4q-1.28 1.48-1.22 4.42.74 35.44 1.81 70.87.02.59-.56.47l-20.42-4.1a1.09 1.09 0 0 1-.87-1.03l-2.85-93.22a.85.85 0 0 1 .98-.87l19.71 2.86q1.32.19 1.46 1.52l.35 3.52q.05.51-.16.98-.39.86.09 1.72.29.53.66.05c4.86-6.21 9.69-9.23 17.82-6.64q8.8 2.81 10.96 12.64.14.64.55.13c5.05-6.3 8.96-10.52 17.71-8.69 5.15 1.08 9.33 3.2 11.07 8.32a.41.41 0 0 0 .8-.08c2.71-21.9 19.21-21.4 36.36-18.54 15.18 2.52 26.75 7.65 31.33 23.31a1.2 1.2 0 0 0 .96.85l23.31 3.49a1.66 1.65 82.9 0 1 1.27.99l9.79 22.9a.37.37 0 0 0 .67.03l10.2-20.04q.28-.54.89-.45 15.56 2.28 31 4.62.71.11.93.59Zm-120.7-5.31.09 7a1.03 1.03 0 0 1-1.2 1.03l-21.85-3.6q-.44-.07-.43.37l.6 18.65a.32.32 0 0 0 .53.24c9.13-7.37 22.89-7.08 33.91-5.49q.84.12.9-.73.69-10.33-.8-19.63c-2.1-9.25-12.75-8.49-11.75 2.16Zm51.43 61.89 7.61-14.34q.26-.48.03-.98l-9.46-21.23-6.37-15.5a.27.27 0 0 0-.52.13c2.14 21.74 1.12 44.73.58 66.62q-.01.77.35.09l7.78-14.79Zm-50.87-8.88q-.69 6.77-.08 14.79.36 4.68 2.39 7.87c2.07 3.25 8.68 5.13 9.41-.49 1.32-10.06.61-20.68.31-30.78l.2-3.07q.04-.58-.53-.64c-8.65-.91-13.49 3.28-11.7 12.32Z"/><path fill="#aa3e01" d="M272.03 269.65q-1.64 3.84-1.31 8.11-.31-.31-.28-1.17a.07.07 0 0 0-.13-.03l-.11.35a.03.03 0 0 1-.06 0q-1.23-5.79 1.89-7.26Z"/><path fill="#fff" d="m323.4 281.94 1.57-7.34c8.82-2.89 8.07 17.2 7.99 23.19q-.01.48-.49.41l-7.97-1.17q-.56-.08-.58-.65l-.52-14.44Z"/><path fill="#aa3e01" d="m324.97 274.6-1.57 7.34q-2.11-5.96 1.57-7.34Z"/><path fill="#c63a06" d="M652.64 277.09c4.57.38 12.83 12.64 15.33 16.49 5.51 8.45 10.45 15.87 13.93 24.65q.15.37.54.43.27.04.47.43 3.13 6.22 5.15 12.9c1.14 3.77.19 7.09 3.53 10.7-3.69 17.45-11.58 38.92-24.65 51.43q-.36.35-.12.79.51.96 2.28.67-3.34 2.5-2.72 4.05c-8.1 6.14-15.42 14.4-25.16 21.31-7.65 5.34-15.67 8.94-23.78 13.24.24-1.79.36-2.76 1.9-3.91q6.74-5.05 12.16-11.48.39 1.24 1.43-.13c30.85-40.78 35.69-93.94 19.71-141.57Z"/><path fill="#aa3e01" d="M489.81 292.98q-1.62-1.09-3.01-2.36c-1.99-1.82-3.58-2.79-5.94-1.23a1.47 1.43 85.7 0 0-.51.61l-2.29 5.14c-1-10.65 9.65-11.41 11.75-2.16Z"/><path fill="#fe581c" d="M489.81 292.98q1.49 9.3.8 19.63-.06.85-.9.73c-11.02-1.59-24.78-1.88-33.91 5.49a.32.32 0 0 1-.53-.24l-.6-18.65q-.01-.44.43-.37l21.85 3.6a1.03 1.03 0 0 0 1.2-1.03l-.09-7 2.29-5.14a1.47 1.43 85.7 0 1 .51-.61c2.36-1.56 3.95-.59 5.94 1.23q1.39 1.27 3.01 2.36Z"/><path fill="#aa3e01" d="M598.76 300.45q.54.23.25.81-10.39 20.77-25.84 47.54-.82-.95-.54-1.48 12.2-22.61 24.55-45.14.56-1.01 1.58-1.73Z"/><path fill="#fe581c" d="M527.67 320.48q3.43 11.13 8.7 21.46.24.47.01.94-1.06 2.12-2.17 4.2c-.89 1.66-2.73 3.65-3.42 6.06a1.58 1.5-12.9 0 1-.53.8q-1.97 1.6-.77 3.09l-7.78 14.79q-.36.68-.35-.09c.54-21.89 1.56-44.88-.58-66.62a.27.27 0 0 1 .52-.13l6.37 15.5Z"/><path fill="#aa3e01" d="m527.67 320.48 9.46 21.23q.23.5-.03.98l-7.61 14.34q-1.2-1.49.77-3.09a1.58 1.5-12.9 0 0 .53-.8c.69-2.41 2.53-4.4 3.42-6.06q1.11-2.08 2.17-4.2.23-.47-.01-.94-5.27-10.33-8.7-21.46ZM355.18 330.97q.15.79.03 1.1c.71 10.5-.46 25.1-13.53 26.68 11.77-3.32 13.35-16.04 12.81-26.13q-.03-.43.24-.76.32-.41.45-.89Z"/><path fill="#eeecec" d="M355.21 332.07q1.12 1.58 1.39 3.7a.62.61-2.2 0 0 .59.54l8.69.32q6.18 37.02 24.75 69.03-6.82 5.32-13.17 11.18c-2.43 2.25-8.32 4.72-4.02 8.96 2.34 2.3 8.22 6.11 7.98 9.54a.99.97-14.6 0 1-.46.77c-7.77 4.77 5.92 11.83 9.96 13.72q.08.03-.01.06l-.34.12q-.25.08-.02.21 11.55 6.22 23.91 10.63.52.19 1.07.1.75-.11 1.05.44.26.49.82.54c3.98.39 7.49 4.19 11.28 5.37q6.67 2.06 13.31 4.09c4.08 1.24 7.13-.1 11.48 2.32q-4.54 3.75-9.46 5.81c-24.76 6.32-43.06 16.46-56.32 39.12l-6.8 13.19q-.71-6.62-5.7-7.53-.54-.1-1.06.08-.85.29-1.49-.4a1.46 1.45-14.8 0 0-.76-.44q-9.44-2.08-18.15-6.17-4-1.89-7.82-2.97c-17.09-4.86-31.04-14.02-46.1-22.2q-1.32-.72-6.01-1.59a1.46 1.45-17 0 1-.8-.42c-2.53-2.61-5.78-3.08-8.32-4.67-4.46-2.78-7.97-4.86-13.44-8.25q-5.79-3.59-12.19-6.08-.42-.16-.67-.54-1.28-1.92-3.54-2.7-.43-.15-.72-.5c-5.29-6.14-7.95-9.55-8.69-18a1.59 1.53 57.3 0 1 .17-.86c2.93-5.57 9.08-5.1 14.64-4.1 8.96 1.62 17.88.84 25.88-3.78q5-2.89 10.97-1.89a2.17 2.08-49.8 0 0 1.14-.12q3.49-1.36 7.25-.56a.53.53 0 0 0 .63-.43q.38-2.18-.94-2.9c-4.55-2.51-9.51-6.04-14.4-7.68-6.82-2.28-12.29-5.96-19.44-8.01q-4.29-1.24-9.14-3.81-11.01-5.85-22.26-11.21c-4.7-2.24-8.69-5.87-13.99-7.88q-.53-.2-.71-.73l-.98-2.96q-.24-.7.33-1.17c2.61-2.13 5.4-5.2 8.3-6.54 2.73-1.26 7.1-1.9 7.71 2.11q.07.5.4.89 1.63 1.92 3.81 3.01.48.24.99.09l5.91-1.65a.43.42-75.2 0 0 .22-.13q2.76-2.81 6.1-3.34c3.66-.57 3.2-2.06 3.47-5.52.39-5.1 6.28-7.46 10.56-7.78 6.33-.47 11.94-1.6 18.57-3.26q4.96-1.24 10.1-1.5c3.75-.19 7.39-1.6 11.38-1.51a1.9 1.82-57.6 0 0 .93-.23q3.72-2.03 7.91-2.57 2.24-.29 7.51-4.52.27-.22 0-.43-.51-.39-.95-.02-.32.27-.53-.08-.19-.33-.01-.95 7.76 2.6 14.72 1.32c13.07-1.58 14.24-16.18 13.53-26.68Z"/><path fill="#aa3e01" d="M490.65 339.54q-.22-1.78-1.38-1.99-9.76-1.72-10.65 10.6c-1.79-9.04 3.05-13.23 11.7-12.32q.57.06.53.64l-.2 3.07Z"/><path fill="#fe581c" d="M490.65 339.54c.3 10.1 1.01 20.72-.31 30.78-.73 5.62-7.34 3.74-9.41.49q-2.03-3.19-2.39-7.87-.61-8.02.08-14.79.89-12.32 10.65-10.6 1.16.21 1.38 1.99Z"/><path fill="#eeecec" d="M710.3 436.31c-4.08-7.97-6.59-16.15-11.26-23.84l-6.54-10.23c-3.17-6.01-9.13-9.34-11.39-15.13 9.45-9.75 16.42-20.54 24.47-31.28q4.73-6.31 8.9-13.25 3.05.45 4.33 3.82c1.73 4.55 3.41 6.95 6.83 10.09 3.25 2.98 12.12 12.19 8.82 16.5q-.35.47-.17 1.02l.62 1.88q.14.43.1.88-.31 3.61 1.18 6.92.21.45.16.93-.91 8.79-1.59 17.64-.22 2.94-2.14 5.23c-1.25 1.49-4.63 2.26-5.29 3.83q-2.78 6.62-5.63 13.21c-1.8 4.15-7.99 8.51-11.4 11.78Z"/><path fill="#aa3e01" d="m404.1 367.63 20.81 4.1q.51.46.53 1.01a1.15 1.15 0 0 1-1.4 1.14c-5.72-1.3-11.69-2.6-17.65-3.45q-3.92-.56-2.29-2.8ZM559.27 383.92l-.61.46q-.51.37-.75-.21l-2.92-6.92a.69.69 0 0 0-1.25-.05q-5.06 9.64-10.12 18.44c-1.71 2.98-3.51 1.42-6.12 1.15q-5.15-.53-13.3-2.61-.44-.11-.85.09l-1.92.95-.14-3.08q-.03-.55.51-.44l19.36 3.92a1.03 1.02 19.1 0 0 1.11-.53l11.52-22.05a.58.58 0 0 1 1.05.05l4.43 10.83ZM437.12 374.65q8.16 1.15 13.89 2.58c1.81.45 1.84 1.72 2.53 3.14 5.48 11.28 21.33 18.84 31.7 9.07 1.97-1.86 3.82-4.81 5.55-7.36a.35.34-30.6 0 1 .63.16l1.14 12.5q.04.51.54.61l27.71 5.77q-2.59 2.18-4.49 1.55c-4.68-1.54-8.61-1.96-12.97-3.18-3.76-1.05-7.49-.87-11.1-2.61a1.36 1.33 2.7 0 1-.66-.71q-.88-2.3-.16-4.62.15-.49-.06-.95l-1.18-2.58a.54.54 0 0 0-.87-.16c-6.95 6.73-10.19 9.19-19.72 7.22q-6.61-1.37-11.85-5.62c-3.02-2.45-4.68-7.37-6.86-10.73q-.33-.5-.92-.47-7.87.37-12.85-3.61Z"/><path fill="#ae7d7b" d="M681.11 387.11c2.26 5.79 8.22 9.12 11.39 15.13l-1.24-1.34q-.55-.61-.33.18l.27.97a.87.85 59.2 0 1-.2.82c-1.87 1.98-2.59 4.44-4.19 6.29-2.08 2.41-4.61 4.41-5.59 7.58-1.25 4.05-3.53 9.53-7.33 11.84q-.32.2-.64 0-.27-.17-.49-.06c-3.67 1.7-7.62 2.92-10.28 5.95-2.66 3.01-4.13 6.69-6.86 9.23-2.59 2.41-6.11 5.97-9.81 6.3-2.64.24-3.85.84-5.97 1.88a.09.08-87.7 0 1-.11-.12l.13-.22q.43-.73-.31-.32-7.93 4.39-9.83 6.52-6.99 7.84-16.96 10.94-1.5.46-4 2.35-2.49 1.88-7.82 2.95a1.08 1.04-66.4 0 0-.39.16l-1.2.81a.19.18 6.9 0 1-.23-.29q1.89-1.69 4.38-2.18.59-.11 0-.21c-.92-.16-1.13.04-2.03.58q-.69.4-1.36.11-.44-.19-.9-.05c-6.1 1.92-9.6 5.53-15.03 8.22q-.45.22-.77.6-1.02 1.22-3.49 1.7-4.36.85-9.05 4.05c-4.49 3.06-14.75 6.17-20.12 5.64q-5.29-.53-10.6-.39c-2.82.07-5.6-.75-8.54-.77q-.27 0-.31-.26-.02-.17-.1-.29-.12-.17-.46-.22-11.11-1.52-22.26-3.16 3.56-.3 9.01.81c4.45.92 10.81 1.43 16.36 1.46 5.01.02 11.06.97 15.62-.7 6.61-2.43 11.1-8.68 17.99-10.16 4.5-.97 8.08-1.95 12.22-4.69q4.34-2.87 9.49-4.13.43-.11.75-.4.44-.4-.12-.22-1.79.58-3.57 1.18-.48.16-.84-.13-.54-.43.13-.59c7.87-1.96 8.5-7.41 14.24-11.32q4.24-2.88 8.92-4.93c2.63-1.15 5.5-3.13 8.33-3.94 7.35-2.12 13.38-9.47 17.76-15.37 3.08-4.15 5.84-4.56 10.11-7.16q.09-.05.11-.15.02-.12-.01-.27-.02-.11-.12-.06-2.39 1.09-5.1 1.06a.1.1 0 0 1-.03-.2q1.43-.5 2.74-1.33a.14.14 0 0 0-.1-.26l-3.14.44q-.73.1-.18-.39 2.21-1.96 2.17-5.64c9.74-6.91 17.06-15.17 25.16-21.31l14.73-12.52Z"/><path fill="#c29691" d="m692.5 402.24 6.54 10.23.88 3.02q.14.49-.13.92-4.79 7.82-12.74 12.11c-2.61 1.41-4.33 3.48-7.22 5.09q-4.26 2.39-6.74 6.56c-2.35 3.96-5.52 6.61-8.42 9.96-1.76 2.03-3.83 2.87-6.19 3.88a.08.08 0 0 0 .01.15q.14.05.29.1.32.08.02.23-.63.3-1.06.88-.4.54.18.21.73-.41 1.54-.62 1.12-.28.11.28c-3.88 2.15-7.03 3.88-10.35 7.17-6.44 6.39-14.4 11.06-22.15 14.62-1.56.71-2.96 1.93-4.7 2.72-3.58 1.6-6.39 3.51-9.46 5.62q-.09.07-.13-.04-.02-.05-.04-.11-.08-.22-.28-.12-1.79.89-4.44 3.17c-8.3 7.16-16.83 5.91-27.08 8q-.12.02-.2.11-.21.24-.53.43-.27.16-.58.2c-4.93.6-9.68 1.76-14.67.98-7.34-1.13-14.9-1.57-22.1-3.39q-2.99-.76-6.12-.82-.55-.01-.72.52l-.15.47q-.14.46-.54.73c-4.57 3.16-10.73 1.7-13.13 6.61q-15.49-10.94-33.18-17.12c-2.62-.92-6.07-1.29-9.21-2.31-10.72-3.46-24.63-3.69-35.8-3.16q4.92-2.06 9.46-5.81l5.57.71q18.25 5.53 36.96 9.57.35.07 1.04.66.39.32.89.38 5.61.6 10.55 3 11.15 1.64 22.26 3.16.34.05.46.22.08.12.1.29.04.26.31.26c2.94.02 5.72.84 8.54.77q5.31-.14 10.6.39c5.37.53 15.63-2.58 20.12-5.64q4.69-3.2 9.05-4.05 2.47-.48 3.49-1.7.32-.38.77-.6c5.43-2.69 8.93-6.3 15.03-8.22q.46-.14.9.05.67.29 1.36-.11c.9-.54 1.11-.74 2.03-.58q.59.1 0 .21-2.49.49-4.38 2.18a.19.18 6.9 0 0 .23.29l1.2-.81a1.08 1.04-66.4 0 1 .39-.16q5.33-1.07 7.82-2.95 2.5-1.89 4-2.35 9.97-3.1 16.96-10.94 1.9-2.13 9.83-6.52.74-.41.31.32l-.13.22a.09.08-87.7 0 0 .11.12c2.12-1.04 3.33-1.64 5.97-1.88 3.7-.33 7.22-3.89 9.81-6.3 2.73-2.54 4.2-6.22 6.86-9.23 2.66-3.03 6.61-4.25 10.28-5.95q.22-.11.49.06.32.2.64 0c3.8-2.31 6.08-7.79 7.33-11.84.98-3.17 3.51-5.17 5.59-7.58 1.6-1.85 2.32-4.31 4.19-6.29a.87.85 59.2 0 0 .2-.82l-.27-.97q-.22-.79.33-.18l1.24 1.34Z"/><path fill="#bbb8b9" d="M390.63 405.66c17.13 29.21 39.1 50.06 68.04 65.64q-1.38.61-1.82 1.33-.33.53.27.73 1.17.39 1.92 1.06l-5.57-.71c-4.35-2.42-7.4-1.08-11.48-2.32q-6.64-2.03-13.31-4.09c-3.79-1.18-7.3-4.98-11.28-5.37q-.56-.05-.82-.54-.3-.55-1.05-.44-.55.09-1.07-.1-12.36-4.41-23.91-10.63-.23-.13.02-.21l.34-.12q.09-.03.01-.06c-4.04-1.89-17.73-8.95-9.96-13.72a.99.97-14.6 0 0 .46-.77c.24-3.43-5.64-7.24-7.98-9.54-4.3-4.24 1.59-6.71 4.02-8.96q6.35-5.86 13.17-11.18Z"/><path fill="#dfb2ac" d="M699.04 412.47c4.67 7.69 7.18 15.87 11.26 23.84l1.6 3.52-6.56 6.32q-.36.35-.81.59-2.87 1.51-4.98 4.02-.3.36-.76.47-2.4.61-4.13 2.34-.36.37-.87.48-.77.15-1.57.55-.42.21-.73.57-1.68 1.97-3.9 3.28c-2.56 1.5-3.31 3.28-4.92 4.96q-.2.21-.18.37.02.14.14.05l2.92-2.51q.47-.4.37.21-.04.21-.16.4-.78 1.21.18.26l.25-.25a.2.12-14.7 0 1 .32.09q-.33.34-.39.65-.11.52.32.21l1.27-.91q.99-.71.36.32c-3.16 5.17-10.81 9.77-15.84 11.68a.1.1 0 0 0 0 .18q.16.06.32.08.44.07.09.34-7.06 5.62-14.19 11.12-1.65 1.27-3.79 1.66c-9.64 1.74-19.15 4.63-27.16 9.85-1.63 1.06-3.61 1.49-5.3 2.62-9.8 6.56-23.88 4.72-34.64 5.22q-.86.04-1.45.44-.37.25-.83.25-5.36.05-10.53 1.52-.12.03-.26-.01-.27-.09-.02-.23l.47-.25q.58-.31-.07-.23-8.34 1.02-12.94 5.15-3.18 2.86-6.52 5.6c-2.27 1.85-5.09 2.14-7.29 4.76l-15.78-12.85-10.14-7.09c2.4-4.91 8.56-3.45 13.13-6.61q.4-.27.54-.73l.15-.47q.17-.53.72-.52 3.13.06 6.12.82c7.2 1.82 14.76 2.26 22.1 3.39 4.99.78 9.74-.38 14.67-.98q.31-.04.58-.2.32-.19.53-.43.08-.09.2-.11c10.25-2.09 18.78-.84 27.08-8q2.65-2.28 4.44-3.17.2-.1.28.12.02.06.04.11.04.11.13.04c3.07-2.11 5.88-4.02 9.46-5.62 1.74-.79 3.14-2.01 4.7-2.72 7.75-3.56 15.71-8.23 22.15-14.62 3.32-3.29 6.47-5.02 10.35-7.17q1.01-.56-.11-.28-.81.21-1.54.62-.58.33-.18-.21.43-.58 1.06-.88.3-.15-.02-.23-.15-.05-.29-.1a.08.08 0 0 1-.01-.15c2.36-1.01 4.43-1.85 6.19-3.88 2.9-3.35 6.07-6 8.42-9.96q2.48-4.17 6.74-6.56c2.89-1.61 4.61-3.68 7.22-5.09q7.95-4.29 12.74-12.11.27-.43.13-.92l-.88-3.02Z"/><path fill="#906d63" d="M641.22 420.94q.04 3.68-2.17 5.64-.55.49.18.39l3.14-.44a.14.14 0 0 1 .1.26q-1.31.83-2.74 1.33a.1.1 0 0 0 .03.2q2.71.03 5.1-1.06.1-.05.12.06.03.15.01.27-.02.1-.11.15c-4.27 2.6-7.03 3.01-10.11 7.16-4.38 5.9-10.41 13.25-17.76 15.37-2.83.81-5.7 2.79-8.33 3.94q-4.68 2.05-8.92 4.93c-5.74 3.91-6.37 9.36-14.24 11.32q-.67.16-.13.59.36.29.84.13 1.78-.6 3.57-1.18.56-.18.12.22-.32.29-.75.4-5.15 1.26-9.49 4.13c-4.14 2.74-7.72 3.72-12.22 4.69-6.89 1.48-11.38 7.73-17.99 10.16-4.56 1.67-10.61.72-15.62.7-5.55-.03-11.91-.54-16.36-1.46q-5.45-1.11-9.01-.81-4.94-2.4-10.55-3-.5-.06-.89-.38-.69-.59-1.04-.66-18.71-4.04-36.96-9.57-.75-.67-1.92-1.06-.6-.2-.27-.73.44-.72 1.82-1.33c6.49 3.57 12.88 5.37 20.82 7.51 33.12 8.91 62.86.45 89.45-19.8q27.7-6.32 48.5-24.83c8.11-4.3 16.13-7.9 23.78-13.24Z"/><path fill="#fcc6c5" d="M711.9 439.83c9.04 18.71 9.87 38.93 12.29 59.23q.16 1.34.04 5.44-.2-.04-.31-.21a.06.05-50.3 0 0-.1.01q-.05.15-.08.29-.04.16-.2.12c-4.54-1.11-8.6-.32-13.2-.88q-2.58-.32-5.23.26a1.48 1.44 50.9 0 1-.95-.11c-5.16-2.51-7.19-4.99-10.92-10.04-2.75-3.73-6.03-4.45-9.21-7.14-6.84-5.8-8.74-2.5-15.71-1.42a.09.09 0 0 1-.09-.14q.28-.38.63-.53a.34.33 25.9 0 0-.22-.63q-2.04.53-4.35 2.72-3 2.84-9.74 4.12a1.44 1.42 13.4 0 0-.86.52q-1.72 2.14-4.23 3.27-.22.11-.02.25.11.08.27.08.18 0 .03.1-1.82 1.28-3.93 1.34c-2.17.06-2.92.58-4.77 1.23-2.73.97-4.3 3-7.58 3.43q-.5.06-.89.38c-6.32 5.22-13.98 5.1-21.11 8.54-2.45 1.19-4.95-.29-7.09-.31-2.9-.02-5.55-.04-8.46.33-4.15.53-7.06.45-10.44 3.78q-.4.39-.95.39h-1.01q-.47 0-.8.33l-1.86 1.86a.21.2-22.8 0 1-.35-.14v-.53q0-.53-.33-.12-2.3 2.86-5.57 4.41c-1.58.76-2.23 1.87-3.66 2.79-3.64 2.35-6.78 5.27-9.9 8.09q-1.31 1.19-2.73.14l-2.56-1.89-7.63-7.14c2.2-2.62 5.02-2.91 7.29-4.76q3.34-2.74 6.52-5.6 4.6-4.13 12.94-5.15.65-.08.07.23l-.47.25q-.25.14.02.23.14.04.26.01 5.17-1.47 10.53-1.52.46 0 .83-.25.59-.4 1.45-.44c10.76-.5 24.84 1.34 34.64-5.22 1.69-1.13 3.67-1.56 5.3-2.62 8.01-5.22 17.52-8.11 27.16-9.85q2.14-.39 3.79-1.66 7.13-5.5 14.19-11.12.35-.27-.09-.34-.16-.02-.32-.08a.1.1 0 0 1 0-.18c5.03-1.91 12.68-6.51 15.84-11.68q.63-1.03-.36-.32l-1.27.91q-.43.31-.32-.21.06-.31.39-.65a.2.12-14.7 0 0-.32-.09l-.25.25q-.96.95-.18-.26.12-.19.16-.4.1-.61-.37-.21l-2.92 2.51q-.12.09-.14-.05-.02-.16.18-.37c1.61-1.68 2.36-3.46 4.92-4.96q2.22-1.31 3.9-3.28.31-.36.73-.57.8-.4 1.57-.55.51-.11.87-.48 1.73-1.73 4.13-2.34.46-.11.76-.47 2.11-2.51 4.98-4.02.45-.24.81-.59l6.56-6.32Z"/><path fill="#e8bbab" d="m522.2 502.11 10.14 7.09c-4.32 2.45-9.03 3.32-13.14 5.85q-2.51 1.55-4.19 1.98c-19.55 5.08-38.49 11.94-58.7 11.65-16.79-.25-31.33-1.92-48.64-5.4-6.04-1.22-12.23-.41-18.22-1.97q-1.55-.41-1.76-2.67c13.26-22.66 31.56-32.8 56.32-39.12 11.17-.53 25.08-.3 35.8 3.16 3.14 1.02 6.59 1.39 9.21 2.31q17.69 6.18 33.18 17.12Z"/><path fill="#ffe1d5" d="M724.23 504.5q.03 1.87-.2 3.72-4.49 35.95-7.03 47.54c-2.69 12.26-9.67 25.02-14.33 36.84-5.52 14.01-9.81 22.97-19.2 34.41-10.58 12.86-19.15 28.65-29.87 39.83-4.96 5.18-13.03 7.4-19.91 8.16h-39.24c-3.74-.33-12.44 1.02-14.46-2.55q-5.31-9.42-8.55-19.71-.15-.49.08-.96 7.32-14.4 17.44-29.82 2.87-4.38 5.74-10.62a.56.55 24.5 0 0-.28-.73l-2.03-.89q1.49-.35 2.62.22.38.19.81.18l5.8-.17a1.36 1.36 0 0 0 1.21-1.9c-5.34-12.27-10.66-24.81-17.55-36.31q-4.5-7.5-9.18-14.9-8.74-13.82-20.53-24.71a2.29 2.29 0 0 1-.56-2.57q.13-.33.74-.37l2.56 1.89q1.42 1.05 2.73-.14c3.12-2.82 6.26-5.74 9.9-8.09 1.43-.92 2.08-2.03 3.66-2.79q3.27-1.55 5.57-4.41.33-.41.33.12v.53a.21.2-22.8 0 0 .35.14l1.86-1.86q.33-.33.8-.33h1.01q.55 0 .95-.39c3.38-3.33 6.29-3.25 10.44-3.78 2.91-.37 5.56-.35 8.46-.33 2.14.02 4.64 1.5 7.09.31 7.13-3.44 14.79-3.32 21.11-8.54q.39-.32.89-.38c3.28-.43 4.85-2.46 7.58-3.43 1.85-.65 2.6-1.17 4.77-1.23q2.11-.06 3.93-1.34.15-.1-.03-.1-.16 0-.27-.08-.2-.14.02-.25 2.51-1.13 4.23-3.27a1.44 1.42 13.4 0 1 .86-.52q6.74-1.28 9.74-4.12 2.31-2.19 4.35-2.72a.34.33 25.9 0 1 .22.63q-.35.15-.63.53a.09.09 0 0 0 .09.14c6.97-1.08 8.87-4.38 15.71 1.42 3.18 2.69 6.46 3.41 9.21 7.14 3.73 5.05 5.76 7.53 10.92 10.04a1.48 1.44 50.9 0 0 .95.11q2.65-.58 5.23-.26c4.6.56 8.66-.23 13.2.88q.16.04.2-.12.03-.14.08-.29a.06.05-50.3 0 1 .1-.01q.11.17.31.21Z"/><path fill="#fed6c7" d="M214.05 500.63c-.57 2.81-1.07 5.84-1.07 8.87.01 16.5.65 32.87 4.73 48.6q.15.57.74.59.77.02.55.97-.14.61.44.83l.72.28q.81.31.8-.56c-.07-4.6 1.18-8.17 2.29-12.51q.78-3.07 4.8-2.99c5.87.12 10 2.71 10.8 8.49 1.15 8.22 1.05 20.67-11.64 19.9q-7.56-.46-14.42-5.05c-7.03-4.72-11.7-13.99-13.04-22.04q-3.45-20.74-3.4-41.76c.01-6.38.51-14.93 7.57-17.6q7.92-2.98 16.51 1.81.07.04.07.12v.36q0 .06.05.1c2.7 1.84 6.06 3.29 8.25 5.38 8.3 7.9 9.2 20.74 9.58 31.45a.66.65 82.2 0 1-.49.65c-4.74 1.23-11.8-1.39-15.23-4.17-2.54-2.06-2.82-10.17-3.37-13.36q-.71-4.14-3.22-8.66a1.09 1.09 0 0 0-2.02.3ZM254.42 581.46c-5.06-.7-7.01-3.28-8.09-8.28-3.19-14.76-2.63-32.07-3.82-43.68q-1.72-16.64-2.03-24.25-.15-3.63 1.42-8.47a.57.57 0 0 1 .66-.38q5.14 1.08 9.86 3.21c4.4 1.99 6.07 2.15 6.4 7.06 1.7 25.82 1.77 46.06 2.96 66.58.16 2.67-.2 14.9-6.75 8.51a1.13 1.09 70.2 0 0-.61-.3ZM299.65 598.19c-4.3-1.42-8.26-4.93-11.41-8.12q-.38-.38-.89-.22-7.34 2.23-13.37-1.75c-5.02-3.32-6.09-11.53-6.2-17.11-.46-22.19-4.17-44.77-3.76-67.32a.44.44 0 0 1 .68-.36l1.08.72q.41.27.9.34 7.87 1.19 13.05 3.67c2.99 1.44 2.85 7.2 2.93 9.27q.99 25.07 2.19 50.14c.12 2.53 1.3 8.93 2.82 10.94q.72.96 1.15 1.9a1.03 1.03 0 0 0 1.94-.2c1.07-4.83 1.63-9.29 1.44-14.48q-.87-23.21-2.55-46.37-.26-3.51.42-7.43a.75.74-69.9 0 1 1.1-.52q1.52.88 3.2.59.49-.08.95.09l12.44 4.61q.57.21.62.82c1.66 20.61 1.78 41.45 2.68 62.11.27 6.2-.73 22.21-11.41 18.68ZM532.34 509.2l15.78 12.85 7.63 7.14q-.61.04-.74.37a2.29 2.29 0 0 0 .56 2.57q11.79 10.89 20.53 24.71 4.68 7.4 9.18 14.9c6.89 11.5 12.21 24.04 17.55 36.31a1.36 1.36 0 0 1-1.21 1.9l-5.8.17q-.43.01-.81-.18-1.13-.57-2.62-.22-11.58-4.58-18.14-5.98-5.39-1.16-8.99-3.28-.36-.22-.57.14l-10.8 18.15a1.16 1.16 0 0 1-2.09-.2q-3.15-8.68-6.88-17.73c-1.71-4.16-3.26-6.59-7.7-8.34q-6.3-2.49-12.31-4.45a3.11 3.09-89.5 0 1-2-2.05l-2.6-8.6a.91.89-.5 0 0-.64-.62q-11.18-2.82-22.14-6.28-1.92-.61-2.94.76c-1.13 1.52-.89 5.29-1.98 7.42a.74.74 0 0 1-1.34-.05c-3.18-7.43-8.7-14.66-17.16-16.7q-6.05-1.47-12.28-.65-.46.06-.84.33-3.17 2.22-5.24 5.39a.89.89 0 0 1-1.11.33c-3.66-1.62-14.45-5.77-18.07-4.98q-.46.1-.48.57-.2 6.87-1.23 16.28c-.36 3.24.07 7.01-.12 10.17-.78 12.89.14 25.79-1.29 38.61q-.03.29-.16.4-.11.11-.27.12-.22.01-.23-.22-.43-9.16-.44-18.32c0-1.19-.57-2.58-.56-3.93q.1-16.77-2.31-33.35c-.62-4.21-.37-8.49-.71-12.81a.94.94 0 0 0-1.12-.84q-3.82.74-7.64-1.06-3.97-1.87-11.99-3.64-.57-.13-.59.46l-2.05 65.7q0 .07-.07.05-.17-.05-.33-.11-.17-.06-.19-.24l-5.46-68.14q-.04-.45-.49-.5c-5.77-.64-9.63-.2-15.85-2.92q-.47-.2-.74-.64-.66-1.09-2-.97-.63.05-.64.68c-.75 24.52-1.49 49.24.39 73.26a.47.47 0 0 1-.93.16q-2.45-9.5-4.2-19.58c-.89-5.12-.54-10.78-1.04-16.23-.79-8.39-1.13-18.1.2-26.15 1.45-8.8 3.06-19.22 6.86-27.31l6.8-13.19q.21 2.26 1.76 2.67c5.99 1.56 12.18.75 18.22 1.97 17.31 3.48 31.85 5.15 48.64 5.4 20.21.29 39.15-6.57 58.7-11.65q1.68-.43 4.19-1.98c4.11-2.53 8.82-3.4 13.14-5.85Z"/><path fill="#ffe1d5" d="M336.64 538.92c-4.23 7.64-3.48 17.18-1.26 25.24a2.16 2.15-89.5 0 0 1.45 1.48l24.5 7.39a.63.62 85.6 0 1 .4.35q.85 1.84.92 3.93c.37 10.4.78 19.86-2.39 28.95-3.28 9.38-10.87 8.25-18.74 6.35-18.84-4.55-24.27-21.45-25.47-38.62-.93-13.22-2.44-25.56-.34-39.56q.91-6.1 3.03-8.88c7.57-9.95 28.39-1.34 34.75 6.47 7.46 9.15 10.46 18.71 7.66 30.44q-.11.49-.52.19-6.08-4.43-13.48-5.97c-4.99-1.03-4.28-15.35-9.74-18q-.5-.25-.77.24Zm7.56 46.1c-1.14-4.13-2.75-7.83-8.08-6.11q-.45.15-.53.62-1.64 10.7 3.26 20.34 1.4 2.76 3.77.29a2.09 1.84-14.9 0 0 .4-.6q3.21-7.2 1.18-14.54Z"/><path fill="#fff" d="M336.12 578.91c5.33-1.72 6.94 1.98 8.08 6.11q2.03 7.34-1.18 14.54a2.09 1.84-14.9 0 1-.4.6q-2.37 2.47-3.77-.29-4.9-9.64-3.26-20.34.08-.47.53-.62Z"/><path fill="#ffe1d5" d="M487.58 620.49q-4.41-3.65-5.33-8.29c-1.14-5.72-2.19-20.1 1.77-24.85 1.28-1.53 3.12-1.16 4.16.55 4.95 8.16 3.84 19.39 3.39 28.42q-.14 2.83-1.59 4.12a1.84 1.84 0 0 1-2.4.05ZM259.92 611.29c-10.22-1.1-14.27-11.65-10.61-20.32a1.43 1.42 11 0 1 1.3-.87q2.57-.04 4.63 1.52.37.29.77.03 1.72-1.14 2.51.58c3.4 7.35 5.19 11.66 2.15 18.62q-.22.5-.75.44ZM521.96 611.72a.41.41 0 0 1 .74-.26q2.16 2.94 3.69 6.59 6.36 15.14 7.65 20.7c.93 4.07-6.97 15.66-9.22 19.84a.42.42 0 0 1-.74.01l-.29-.47q-.11-.2-.12-.44l-1.71-45.97ZM461.18 675h-50.74l-7.92-.71a1.37 1.32 69.8 0 1-.87-.42q-1.74-1.81-3.18-4.35c-7.26-12.75-15.12-27.02-16.94-41.27q-.09-.64.46-.3c1.39.87 2.33 1.93 3.82 2.49 4.83 1.83 10.78 3.88 15.99 3.29q.5-.06.93.21 5.57 3.53 9.82 8.52 1.88 2.21 3.37 2.92c5.91 2.82 8.52-.05 12.68-3.58a1.44 1.44 0 0 1 2.23.48q2.79 5.92 8.85 9.14c2.49 1.32 4.37 1.24 7.14 1.04a1.6 1.58-31.2 0 1 .91.22q2.81 1.69 6.07 1.59a1.41 1.41 0 0 1 .9.28q2.32 1.75 3.05 3.96c2.23 6.72 3.88 11.9 10.37 14.95q.68.32-.06.44l-6.88 1.1ZM478.19 643.13c-5.88-1.61-21.27-3.99-17.08-13.83a2.03 2.03 0 0 1 3.1-.82q3.48 2.64 6.93 5.29c10.46 8.06 24.03 7.35 19.54 25.78q-.63 2.57-3.65 1.87-1-.24-1.37-1.2l-6.09-15.85a2.07 2.05 86.7 0 0-1.38-1.24Z"/></svg>